solid OpenSCAD_Model
  facet normal 0 0 -1
    outer loop
      vertex -7.75 0 -10.3
      vertex -8.75 1 -10.3
      vertex -5.825 0 -10.3
    endloop
  endfacet
  facet normal 0 0 -1
    outer loop
      vertex -8.75 18.299999997019768 -10.3
      vertex -5.825 0 -10.3
      vertex -8.75 1 -10.3
    endloop
  endfacet
  facet normal 0 -1 0
    outer loop
      vertex -7.75 0 -10.3
      vertex -5.825 0 -10.3
      vertex -5.825 0 -9.3
    endloop
  endfacet
  facet normal 0 -1 0
    outer loop
      vertex -7.75 0 -10.3
      vertex -5.825 0 -9.3
      vertex -7.75 0 -9.3
    endloop
  endfacet
  facet normal 0 -1 0
    outer loop
      vertex -5.825 0 -7.34
      vertex -7.75 0 7.35
      vertex -7.75 0 -7.34
    endloop
  endfacet
  facet normal 0 0 1
    outer loop
      vertex -8.75 1 10.3
      vertex -7.75 0 10.3
      vertex -5.825 15.9 10.3
    endloop
  endfacet
  facet normal 0 -1 0
    outer loop
      vertex -5.825 0 -7.34
      vertex -5.825 0 7.35
      vertex -7.75 0 7.35
    endloop
  endfacet
  facet normal 0 -1 0
    outer loop
      vertex -5.825 0 10.3
      vertex -7.75 0 9.3
      vertex -5.825 0 9.3
    endloop
  endfacet
  facet normal 0 -1 0
    outer loop
      vertex -7.75 0 10.3
      vertex -7.75 0 9.3
      vertex -5.825 0 10.3
    endloop
  endfacet
  facet normal 0 0 1
    outer loop
      vertex -7.75 0 10.3
      vertex -5.825 0 10.3
      vertex -5.825 15.9 10.3
    endloop
  endfacet
  facet normal -1 0 0
    outer loop
      vertex -8.75 18.3 -10.3
      vertex -8.75 18.299999997019768 -10.3
      vertex -8.75 18.3 -1.9340622441599336
    endloop
  endfacet
  facet normal -1 0 0
    outer loop
      vertex -8.75 18.299999997019768 -10.3
      vertex -8.75 18.299999997019768 -1.934062243413424
      vertex -8.75 18.3 -1.9340622441599336
    endloop
  endfacet
  facet normal 0 0 -1
    outer loop
      vertex -8.75 18.299999997019768 -10.3
      vertex -5.825 15.9 -10.3
      vertex -5.825 0 -10.3
    endloop
  endfacet
  facet normal 0 0 -1
    outer loop
      vertex -8.75 18.299999997019768 -10.3
      vertex 5.825 15.9 -10.3
      vertex -5.825 15.9 -10.3
    endloop
  endfacet
  facet normal 0 0 -1
    outer loop
      vertex -8.75 18.3 -10.3
      vertex 8.75 18.3 -10.3
      vertex -8.75 18.299999997019768 -10.3
    endloop
  endfacet
  facet normal 0 1 0
    outer loop
      vertex -8.75 18.3 -10.3
      vertex -8.75 18.3 -1.9340622441599336
      vertex 1.6430140423688755 18.3 -1.9340622441599336
    endloop
  endfacet
  facet normal 0 0 1
    outer loop
      vertex -8.75 18.299999997019768 10.3
      vertex -8.75 1 10.3
      vertex -5.825 15.9 10.3
    endloop
  endfacet
  facet normal -1 0 0
    outer loop
      vertex -8.75 18.299999997019768 10.3
      vertex -8.75 18.3 1.9340622441599338
      vertex -8.75 18.299999997019768 1.9340622434134245
    endloop
  endfacet
  facet normal -1 0 0
    outer loop
      vertex -8.75 18.3 10.3
      vertex -8.75 18.3 1.9340622441599338
      vertex -8.75 18.299999997019768 10.3
    endloop
  endfacet
  facet normal 0 0 1
    outer loop
      vertex -8.75 18.3 10.3
      vertex -8.75 18.299999997019768 10.3
      vertex -5.825 15.9 10.3
    endloop
  endfacet
  facet normal 0 1 0
    outer loop
      vertex -8.75 18.3 10.3
      vertex -1.6430140423688755 18.3 1.9340622441599336
      vertex -8.75 18.3 1.9340622441599338
    endloop
  endfacet
  facet normal 0 1 0
    outer loop
      vertex -8.75 18.3 10.3
      vertex 8.75 18.3 10.3
      vertex -1.6430140423688755 18.3 1.9340622441599336
    endloop
  endfacet
  facet normal 0 0 1
    outer loop
      vertex -8.75 18.3 10.3
      vertex -5.825 15.9 10.3
      vertex 8.75 18.299999997019768 10.3
    endloop
  endfacet
  facet normal 0 -1 0
    outer loop
      vertex 5.825 0 -10.3
      vertex 7.75 0 -10.3
      vertex 5.825 0 -9.3
    endloop
  endfacet
  facet normal 0 -1 0
    outer loop
      vertex 7.75 0 -10.3
      vertex 7.75 0 -9.3
      vertex 5.825 0 -9.3
    endloop
  endfacet
  facet normal 0 -1 0
    outer loop
      vertex 5.825 0 -7.34
      vertex 7.75 0 -7.34
      vertex 5.825 0 7.35
    endloop
  endfacet
  facet normal 0 0 -1
    outer loop
      vertex 7.75 0 -10.3
      vertex 5.825 0 -10.3
      vertex 5.825 15.9 -10.3
    endloop
  endfacet
  facet normal 0 0 -1
    outer loop
      vertex 5.825 15.9 -10.3
      vertex 8.75 1 -10.3
      vertex 7.75 0 -10.3
    endloop
  endfacet
  facet normal 0 -1 0
    outer loop
      vertex 5.825 0 7.35
      vertex 7.75 0 -7.34
      vertex 7.75 0 7.35
    endloop
  endfacet
  facet normal 0 -1 0
    outer loop
      vertex 7.75 0 10.3
      vertex 5.825 0 9.3
      vertex 7.75 0 9.3
    endloop
  endfacet
  facet normal 0 -1 0
    outer loop
      vertex 5.825 0 10.3
      vertex 5.825 0 9.3
      vertex 7.75 0 10.3
    endloop
  endfacet
  facet normal 0 0 1
    outer loop
      vertex 7.75 0 10.3
      vertex 8.75 1 10.3
      vertex 5.825 0 10.3
    endloop
  endfacet
  facet normal 0 0 1
    outer loop
      vertex 8.75 18.299999997019768 10.3
      vertex 5.825 0 10.3
      vertex 8.75 1 10.3
    endloop
  endfacet
  facet normal 0 0 -1
    outer loop
      vertex -8.75 18.299999997019768 -10.3
      vertex 8.75 18.3 -10.3
      vertex 5.825 15.9 -10.3
    endloop
  endfacet
  facet normal 0 1 0
    outer loop
      vertex -8.75 18.3 -10.3
      vertex 1.6430140423688755 18.3 -1.9340622441599336
      vertex 8.75 18.3 -10.3
    endloop
  endfacet
  facet normal 0 1 0
    outer loop
      vertex 8.75 18.3 -10.3
      vertex 1.6430140423688755 18.3 -1.9340622441599336
      vertex 8.75 18.3 -1.9340622441599338
    endloop
  endfacet
  facet normal 0 0 -1
    outer loop
      vertex 8.75 18.299999997019768 -10.3
      vertex 8.75 1 -10.3
      vertex 5.825 15.9 -10.3
    endloop
  endfacet
  facet normal 0 0 -1
    outer loop
      vertex 8.75 18.3 -10.3
      vertex 8.75 18.299999997019768 -10.3
      vertex 5.825 15.9 -10.3
    endloop
  endfacet
  facet normal 1 0 0
    outer loop
      vertex 8.75 18.3 -10.3
      vertex 8.75 18.3 -1.9340622441599338
      vertex 8.75 18.299999997019768 -10.3
    endloop
  endfacet
  facet normal 1 0 0
    outer loop
      vertex 8.75 18.299999997019768 -10.3
      vertex 8.75 18.3 -1.9340622441599338
      vertex 8.75 18.299999997019768 -1.9340622434134245
    endloop
  endfacet
  facet normal 0 0 1
    outer loop
      vertex 8.75 18.299999997019768 10.3
      vertex 5.825 15.9 10.3
      vertex 5.825 0 10.3
    endloop
  endfacet
  facet normal 0 1 0
    outer loop
      vertex 8.75 18.3 10.3
      vertex 8.75 18.3 1.9340622441599336
      vertex -1.6430140423688755 18.3 1.9340622441599336
    endloop
  endfacet
  facet normal 0 0 1
    outer loop
      vertex 8.75 18.299999997019768 10.3
      vertex -5.825 15.9 10.3
      vertex 5.825 15.9 10.3
    endloop
  endfacet
  facet normal 0 0 1
    outer loop
      vertex -8.75 18.3 10.3
      vertex 8.75 18.299999997019768 10.3
      vertex 8.75 18.3 10.3
    endloop
  endfacet
  facet normal 1 0 0
    outer loop
      vertex 8.75 18.299999997019768 10.3
      vertex 8.75 18.299999997019768 1.934062243413424
      vertex 8.75 18.3 1.9340622441599336
    endloop
  endfacet
  facet normal 1 0 0
    outer loop
      vertex 8.75 18.3 10.3
      vertex 8.75 18.299999997019768 10.3
      vertex 8.75 18.3 1.9340622441599336
    endloop
  endfacet
  facet normal -0.9937086738878859 0.11199585456604753 0
    outer loop
      vertex -14.75 0 -10.3
      vertex -14.75 0 -9.25
      vertex -14.4921875 2.287500001490116 -9.25
    endloop
  endfacet
  facet normal -0.9937086738878859 0.11199585456604753 0
    outer loop
      vertex -14.75 0 -10.3
      vertex -14.4921875 2.287500001490116 -9.25
      vertex -14.4921875 2.287500001490116 -10.3
    endloop
  endfacet
  facet normal 0 -1 0
    outer loop
      vertex -14.75 0 -10.3
      vertex -8.75 0 -10.3
      vertex -14.75 0 -9.25
    endloop
  endfacet
  facet normal 0 0 -1
    outer loop
      vertex -14.75 0 -10.3
      vertex -14.4921875 2.287500001490116 -10.3
      vertex -8.75 0 -10.3
    endloop
  endfacet
  facet normal -0.9585798498564178 0.28482393061196204 0
    outer loop
      vertex -14.4921875 2.287500001490116 -10.3
      vertex -14.4921875 2.287500001490116 -9.25
      vertex -13.8125 4.575000002980232 -9.25
    endloop
  endfacet
  facet normal -0.9585798498564178 0.28482393061196204 0
    outer loop
      vertex -14.4921875 2.287500001490116 -10.3
      vertex -13.8125 4.575000002980232 -9.25
      vertex -13.8125 4.575000002980232 -10.3
    endloop
  endfacet
  facet normal 0 0 -1
    outer loop
      vertex -14.4921875 2.287500001490116 -10.3
      vertex -13.8125 4.575000002980232 -10.3
      vertex -8.75 0 -10.3
    endloop
  endfacet
  facet normal 0 0 -1
    outer loop
      vertex -13.8125 4.575000002980232 -10.3
      vertex -12.8515625 6.862499997019768 -10.3
      vertex -8.75 0 -10.3
    endloop
  endfacet
  facet normal 0 -1 0
    outer loop
      vertex -14.75 0 -9.25
      vertex -8.75 0 -10.3
      vertex -8.76 0 -9.3
    endloop
  endfacet
  facet normal 0 -1 0
    outer loop
      vertex -14.75 0 -9.25
      vertex -8.76 0 -9.3
      vertex -8.76 0 -9.25
    endloop
  endfacet
  facet normal 0 -1 0
    outer loop
      vertex -8.75 0 -10.3
      vertex -8.75 0 -9.3
      vertex -8.76 0 -9.3
    endloop
  endfacet
  facet normal -0.9937086738878859 0.11199585456604755 0
    outer loop
      vertex -14.75 0 -7.34
      vertex -14.4921875 2.287500001490116 7.35
      vertex -14.4921875 2.287500001490116 -7.34
    endloop
  endfacet
  facet normal 0 -1 0
    outer loop
      vertex -14.75 0 -7.34
      vertex -8.75 0 -7.34
      vertex -14.75 0 7.35
    endloop
  endfacet
  facet normal -0.9585798498564178 0.2848239306119621 0
    outer loop
      vertex -14.4921875 2.287500001490116 -7.34
      vertex -13.8125 4.575000002980232 7.35
      vertex -13.8125 4.575000002980232 -7.34
    endloop
  endfacet
  facet normal -0.9219551228674584 0.3872967227055371 0
    outer loop
      vertex -13.8125 4.575000002980232 -10.3
      vertex -13.8125 4.575000002980232 -9.25
      vertex -13.045850409090374 6.4 -9.25
    endloop
  endfacet
  facet normal -0.9219551228674584 0.3872967227055374 -3.965649759485268e-16
    outer loop
      vertex -13.8125 4.575000002980232 -10.3
      vertex -13.045850409090374 6.4 -9.25
      vertex -12.8515625 6.862499997019768 -10.3
    endloop
  endfacet
  facet normal 0 0 -1
    outer loop
      vertex -12.8515625 6.862499997019768 -10.3
      vertex -10.6484375 11.4375 -10.3
      vertex -8.75 0 -10.3
    endloop
  endfacet
  facet normal 0 0 -1
    outer loop
      vertex -9.0078125 16.012500002980232 -10.3
      vertex -8.75 1 -10.3
      vertex -8.75 0 -10.3
    endloop
  endfacet
  facet normal 0 0 -1
    outer loop
      vertex -10.6484375 11.4375 -10.3
      vertex -9.6875 13.725000001490116 -10.3
      vertex -8.75 0 -10.3
    endloop
  endfacet
  facet normal -0.9219551228674581 0.38729672270553805 0
    outer loop
      vertex -12.8515625 6.862499997019768 -10.3
      vertex -13.045850409090374 6.4 -9.25
      vertex -12.8515625 6.862499997019768 10.3
    endloop
  endfacet
  facet normal -0.9219551228674584 0.3872967227055371 2.9587161826481125e-17
    outer loop
      vertex -12.8515625 6.862499997019768 10.3
      vertex -13.045850409090374 6.4 -7.34
      vertex -13.8125 4.575000002980232 -7.34
    endloop
  endfacet
  facet normal -0.9219551228674578 0.38729672270553844 3.601571928979542e-18
    outer loop
      vertex -12.8515625 6.862499997019768 10.3
      vertex -13.045850409090374 6.4 -9.25
      vertex -13.045850409090374 6.4 -7.34
    endloop
  endfacet
  facet normal -0.9937086738878859 0.11199585456604755 0
    outer loop
      vertex -14.75 0 -7.34
      vertex -14.75 0 7.35
      vertex -14.4921875 2.287500001490116 7.35
    endloop
  endfacet
  facet normal -0.9585798498564178 0.2848239306119621 0
    outer loop
      vertex -14.4921875 2.287500001490116 -7.34
      vertex -14.4921875 2.287500001490116 7.35
      vertex -13.8125 4.575000002980232 7.35
    endloop
  endfacet
  facet normal 0 -1 0
    outer loop
      vertex -8.75 0 -7.34
      vertex -8.75 0 7.35
      vertex -14.75 0 7.35
    endloop
  endfacet
  facet normal -0.9937086738878859 0.11199585456604752 0
    outer loop
      vertex -14.75 0 10.3
      vertex -14.4921875 2.287500001490116 10.3
      vertex -14.75 0 9.26
    endloop
  endfacet
  facet normal -0.9937086738878859 0.11199585456604752 0
    outer loop
      vertex -14.4921875 2.287500001490116 10.3
      vertex -14.4921875 2.287500001490116 9.26
      vertex -14.75 0 9.26
    endloop
  endfacet
  facet normal 0 -1 0
    outer loop
      vertex -14.75 0 10.3
      vertex -14.75 0 9.26
      vertex -8.75 0 10.3
    endloop
  endfacet
  facet normal 0 0 1
    outer loop
      vertex -14.75 0 10.3
      vertex -8.75 0 10.3
      vertex -14.4921875 2.287500001490116 10.3
    endloop
  endfacet
  facet normal -0.9585798498564178 0.28482393061196204 0
    outer loop
      vertex -14.4921875 2.287500001490116 10.3
      vertex -13.8125 4.575000002980232 10.3
      vertex -14.4921875 2.287500001490116 9.26
    endloop
  endfacet
  facet normal -0.9585798498564178 0.28482393061196204 0
    outer loop
      vertex -13.8125 4.575000002980232 10.3
      vertex -13.8125 4.575000002980232 9.26
      vertex -14.4921875 2.287500001490116 9.26
    endloop
  endfacet
  facet normal 0 0 1
    outer loop
      vertex -14.4921875 2.287500001490116 10.3
      vertex -8.75 0 10.3
      vertex -13.8125 4.575000002980232 10.3
    endloop
  endfacet
  facet normal 0 0 1
    outer loop
      vertex -13.8125 4.575000002980232 10.3
      vertex -8.75 0 10.3
      vertex -12.8515625 6.862499997019768 10.3
    endloop
  endfacet
  facet normal 0 -1 0
    outer loop
      vertex -14.75 0 9.26
      vertex -8.76 0 9.26
      vertex -8.76 0 9.3
    endloop
  endfacet
  facet normal 0 -1 0
    outer loop
      vertex -14.75 0 9.26
      vertex -8.76 0 9.3
      vertex -8.75 0 10.3
    endloop
  endfacet
  facet normal 0 -1 0
    outer loop
      vertex -8.75 0 10.3
      vertex -8.76 0 9.3
      vertex -8.75 0 9.3
    endloop
  endfacet
  facet normal -0.9219551228674584 0.3872967227055371 0
    outer loop
      vertex -13.8125 4.575000002980232 -7.34
      vertex -13.8125 4.575000002980232 7.35
      vertex -13.045850409090374 6.4 7.35
    endloop
  endfacet
  facet normal -0.9219551228674566 0.3872967227055415 -6.803880819402844e-16
    outer loop
      vertex -12.8515625 6.862499997019768 10.3
      vertex -13.8125 4.575000002980232 -7.34
      vertex -13.045850409090374 6.4 7.35
    endloop
  endfacet
  facet normal -0.9009749405630989 0.43387112888197615 0
    outer loop
      vertex -12.8515625 6.862499997019768 -10.3
      vertex -12.8515625 6.862499997019768 10.3
      vertex -10.6484375 11.4375 10.3
    endloop
  endfacet
  facet normal -0.9219551228674583 0.38729672270553706 0
    outer loop
      vertex -13.8125 4.575000002980232 10.3
      vertex -13.045850409090374 6.4 9.26
      vertex -13.8125 4.575000002980232 9.26
    endloop
  endfacet
  facet normal -0.9219551228674581 0.3872967227055381 3.60157192897954e-18
    outer loop
      vertex -12.8515625 6.862499997019768 10.3
      vertex -13.045850409090374 6.4 7.35
      vertex -13.045850409090374 6.4 9.26
    endloop
  endfacet
  facet normal -0.9219551228674583 0.3872967227055373 4.2487646496378474e-16
    outer loop
      vertex -13.8125 4.575000002980232 10.3
      vertex -12.8515625 6.862499997019768 10.3
      vertex -13.045850409090374 6.4 9.26
    endloop
  endfacet
  facet normal 0 0 1
    outer loop
      vertex -12.8515625 6.862499997019768 10.3
      vertex -8.75 0 10.3
      vertex -10.6484375 11.4375 10.3
    endloop
  endfacet
  facet normal 0 0 1
    outer loop
      vertex -9.0078125 16.012500002980232 10.3
      vertex -8.75 0 10.3
      vertex -8.75 1 10.3
    endloop
  endfacet
  facet normal 0 0 1
    outer loop
      vertex -10.6484375 11.4375 10.3
      vertex -8.75 0 10.3
      vertex -9.6875 13.725000001490116 10.3
    endloop
  endfacet
  facet normal 0 0 -1
    outer loop
      vertex -9.6875 13.725000001490116 -10.3
      vertex -9.0078125 16.012500002980232 -10.3
      vertex -8.75 0 -10.3
    endloop
  endfacet
  facet normal 0 0 -1
    outer loop
      vertex -9.0078125 16.012500002980232 -10.3
      vertex -8.75 18.299999997019768 -10.3
      vertex -8.75 1 -10.3
    endloop
  endfacet
  facet normal -0.9009749405630989 0.43387112888197615 0
    outer loop
      vertex -12.8515625 6.862499997019768 -10.3
      vertex -10.6484375 11.4375 10.3
      vertex -10.6484375 11.4375 -10.3
    endloop
  endfacet
  facet normal -0.9219551233178874 0.3872967216332963 0
    outer loop
      vertex -10.6484375 11.4375 -10.3
      vertex -9.6875 13.725000001490116 10.3
      vertex -9.6875 13.725000001490116 -10.3
    endloop
  endfacet
  facet normal -0.9937086738472891 0.11199585492625203 0
    outer loop
      vertex -9.0078125 16.012500002980232 -10.3
      vertex -8.75 18.299999997019768 -1.934062243413424
      vertex -8.75 18.299999997019768 -10.3
    endloop
  endfacet
  facet normal -0.9585798498564175 0.284823930611962 0
    outer loop
      vertex -9.6875 13.725000001490116 -10.3
      vertex -9.0078125 16.012500002980232 10.3
      vertex -9.0078125 16.012500002980232 -10.3
    endloop
  endfacet
  facet normal -0.9937086738472891 0.1119958549262516 -2.99390264481061e-17
    outer loop
      vertex -9.0078125 16.012500002980232 -10.3
      vertex -8.881068969991865 17.13706077539491 -1.1111404660392044
      vertex -8.867891700524376 17.253979093274527 -1.268786568327291
    endloop
  endfacet
  facet normal -0.993708673847289 0.11199585492625262 -3.6628292933340366e-17
    outer loop
      vertex -9.0078125 16.012500002980232 -10.3
      vertex -8.909351305264869 16.88611932853558 -0.5805693545089247
      vertex -8.901899075011226 16.95224093497743 -0.7653668647301796
    endloop
  endfacet
  facet normal -0.9937086738472894 0.11199585492624839 3.7335576282900577e-16
    outer loop
      vertex -9.0078125 16.012500002980232 -10.3
      vertex -8.901899075011226 16.95224093497743 -0.7653668647301796
      vertex -8.89244126863838 17.03615747130329 -0.9427934736519953
    endloop
  endfacet
  facet normal -0.9937086738472896 0.11199585492624717 5.206424336292985e-16
    outer loop
      vertex -9.0078125 16.012500002980232 -10.3
      vertex -8.89244126863838 17.03615747130329 -0.9427934736519953
      vertex -8.881068969991865 17.13706077539491 -1.1111404660392044
    endloop
  endfacet
  facet normal -0.9937086738472887 0.11199585492625602 -7.086495998955488e-16
    outer loop
      vertex -9.0078125 16.012500002980232 -10.3
      vertex -8.853036364544314 17.385786437626905 -1.4142135623730951
      vertex -8.836646027057919 17.53121343167271 -1.546020906725474
    endloop
  endfacet
  facet normal -0.993708673847289 0.11199585492625275 -2.160246789902652e-16
    outer loop
      vertex -9.0078125 16.012500002980232 -10.3
      vertex -8.867891700524376 17.253979093274527 -1.268786568327291
      vertex -8.853036364544314 17.385786437626905 -1.4142135623730951
    endloop
  endfacet
  facet normal -0.9937086738472893 0.11199585492624935 4.901996115058317e-16
    outer loop
      vertex -9.0078125 16.012500002980232 -10.3
      vertex -8.836646027057919 17.53121343167271 -1.546020906725474
      vertex -8.818878535975056 17.688859533960795 -1.6629392246050905
    endloop
  endfacet
  facet normal -0.9937086738472876 0.11199585492626521 -1.1890471035605982e-15
    outer loop
      vertex -9.0078125 16.012500002980232 -10.3
      vertex -8.914726190348162 16.83842943919354 -0.3901806440322565
      vertex -8.909351305264869 16.88611932853558 -0.5805693545089247
    endloop
  endfacet
  facet normal -0.9937086738472907 0.11199585492623751 1.155578758839655e-15
    outer loop
      vertex -9.0078125 16.012500002980232 -10.3
      vertex -8.917971967179541 16.809630546655608 -0.1960342806591212
      vertex -8.914726190348162 16.83842943919354 -0.3901806440322565
    endloop
  endfacet
  facet normal -0.993708673847289 0.11199585492625314 -2.9678646182775106e-16
    outer loop
      vertex -9.0078125 16.012500002980232 -10.3
      vertex -8.818878535975056 17.688859533960795 -1.6629392246050905
      vertex -8.79990500194755 17.857206526348005 -1.76384252869671
    endloop
  endfacet
  facet normal -0.9937086738472886 0.11199585492625563 -9.901892234110306e-16
    outer loop
      vertex -9.0078125 16.012500002980232 -10.3
      vertex -8.779908150480077 18.03463313526982 -1.8477590650225735
      vertex -8.759080562183657 18.219430645491077 -1.9138806714644176
    endloop
  endfacet
  facet normal -0.9937086738472893 0.11199585492624936 5.035323214375532e-16
    outer loop
      vertex -9.0078125 16.012500002980232 -10.3
      vertex -8.79990500194755 17.857206526348005 -1.76384252869671
      vertex -8.779908150480077 18.03463313526982 -1.8477590650225735
    endloop
  endfacet
  facet normal -0.993708673847289 0.11199585492625318 -2.1903794209766564e-16
    outer loop
      vertex -9.0078125 16.012500002980232 -10.3
      vertex -8.759080562183657 18.219430645491077 -1.9138806714644176
      vertex -8.75 18.299999997019768 -1.934062243413424
    endloop
  endfacet
  facet normal -0.9937086738472891 0.11199585492625193 0
    outer loop
      vertex -9.0078125 16.012500002980232 -10.3
      vertex -9.0078125 16.012500002980232 10.3
      vertex -8.917971967179541 16.809630546655608 -0.1960342806591212
    endloop
  endfacet
  facet normal -0.9219551233178874 0.3872967216332963 0
    outer loop
      vertex -10.6484375 11.4375 -10.3
      vertex -10.6484375 11.4375 10.3
      vertex -9.6875 13.725000001490116 10.3
    endloop
  endfacet
  facet normal 0 0 1
    outer loop
      vertex -9.6875 13.725000001490116 10.3
      vertex -8.75 0 10.3
      vertex -9.0078125 16.012500002980232 10.3
    endloop
  endfacet
  facet normal 0 0 1
    outer loop
      vertex -9.0078125 16.012500002980232 10.3
      vertex -8.75 1 10.3
      vertex -8.75 18.299999997019768 10.3
    endloop
  endfacet
  facet normal -0.9585798498564175 0.284823930611962 0
    outer loop
      vertex -9.6875 13.725000001490116 -10.3
      vertex -9.6875 13.725000001490116 10.3
      vertex -9.0078125 16.012500002980232 10.3
    endloop
  endfacet
  facet normal -0.9937086738472759 0.11199585492636846 9.026097090014778e-15
    outer loop
      vertex -9.0078125 16.012500002980232 10.3
      vertex -8.9190573771538 16.8 0
      vertex -8.917971967179541 16.809630546655608 -0.1960342806591212
    endloop
  endfacet
  facet normal -0.9937086738472919 0.11199585492622785 -1.9315420604351016e-15
    outer loop
      vertex -9.0078125 16.012500002980232 10.3
      vertex -8.917971967179541 16.809630546655608 0.1960342806591212
      vertex -8.9190573771538 16.8 0
    endloop
  endfacet
  facet normal -0.9937086738472907 0.11199585492623752 -1.144926889293879e-15
    outer loop
      vertex -9.0078125 16.012500002980232 10.3
      vertex -8.914726190348162 16.83842943919354 0.3901806440322565
      vertex -8.917971967179541 16.809630546655608 0.1960342806591212
    endloop
  endfacet
  facet normal -0.9937086738472876 0.1119958549262651 1.1751509703070432e-15
    outer loop
      vertex -9.0078125 16.012500002980232 10.3
      vertex -8.909351305264869 16.88611932853558 0.5805693545089247
      vertex -8.914726190348162 16.83842943919354 0.3901806440322565
    endloop
  endfacet
  facet normal -0.993708673847289 0.11199585492625247 2.6221581918657133e-17
    outer loop
      vertex -9.0078125 16.012500002980232 10.3
      vertex -8.901899075011226 16.95224093497743 0.7653668647301796
      vertex -8.909351305264869 16.88611932853558 0.5805693545089247
    endloop
  endfacet
  facet normal -0.9937086738472894 0.11199585492624842 -3.74985537264369e-16
    outer loop
      vertex -9.0078125 16.012500002980232 10.3
      vertex -8.89244126863838 17.03615747130329 0.9427934736519953
      vertex -8.901899075011226 16.95224093497743 0.7653668647301796
    endloop
  endfacet
  facet normal -0.9937086738472896 0.11199585492624696 -5.304679680454501e-16
    outer loop
      vertex -9.0078125 16.012500002980232 10.3
      vertex -8.881068969991865 17.13706077539491 1.1111404660392044
      vertex -8.89244126863838 17.03615747130329 0.9427934736519953
    endloop
  endfacet
  facet normal -0.9937086738472891 0.11199585492625168 2.6774508958386554e-17
    outer loop
      vertex -9.0078125 16.012500002980232 10.3
      vertex -8.867891700524376 17.253979093274527 1.268786568327291
      vertex -8.881068969991865 17.13706077539491 1.1111404660392044
    endloop
  endfacet
  facet normal -0.993708673847289 0.11199585492625316 -2.551291629725947e-17
    outer loop
      vertex -8.75 18.299999997019768 10.3
      vertex -8.853036364544314 17.385786437626905 1.4142135623730951
      vertex -8.867891700524376 17.253979093274527 1.268786568327291
    endloop
  endfacet
  facet normal -0.9937086738472886 0.11199585492625705 -4.374605373482641e-16
    outer loop
      vertex -8.75 18.299999997019768 10.3
      vertex -8.836646027057919 17.53121343167271 1.546020906725474
      vertex -8.853036364544314 17.385786437626905 1.4142135623730951
    endloop
  endfacet
  facet normal -0.9937086738472894 0.11199585492624871 3.0484025139634414e-16
    outer loop
      vertex -8.75 18.299999997019768 10.3
      vertex -8.818878535975056 17.688859533960795 1.6629392246050905
      vertex -8.836646027057919 17.53121343167271 1.546020906725474
    endloop
  endfacet
  facet normal -0.9937086738472888 0.1119958549262534 -3.183985743540858e-17
    outer loop
      vertex -8.75 18.299999997019768 10.3
      vertex -8.79990500194755 17.857206526348005 1.76384252869671
      vertex -8.818878535975056 17.688859533960795 1.6629392246050905
    endloop
  endfacet
  facet normal -0.9937086738472893 0.11199585492624918 1.888300296263643e-16
    outer loop
      vertex -8.75 18.299999997019768 10.3
      vertex -8.779908150480077 18.03463313526982 1.8477590650225735
      vertex -8.79990500194755 17.857206526348005 1.76384252869671
    endloop
  endfacet
  facet normal -0.9937086738472887 0.11199585492625602 -2.9125794007468494e-17
    outer loop
      vertex -8.75 18.299999997019768 10.3
      vertex -8.759080562183657 18.219430645491077 1.9138806714644176
      vertex -8.779908150480077 18.03463313526982 1.8477590650225735
    endloop
  endfacet
  facet normal -0.9937086738472889 0.11199585492625302 0
    outer loop
      vertex -8.75 18.299999997019768 10.3
      vertex -8.75 18.299999997019768 1.9340622434134245
      vertex -8.759080562183657 18.219430645491077 1.9138806714644176
    endloop
  endfacet
  facet normal -0.993708673847289 0.11199585492625204 9.478954974383155e-17
    outer loop
      vertex -9.0078125 16.012500002980232 10.3
      vertex -8.75 18.299999997019768 10.3
      vertex -8.867891700524376 17.253979093274527 1.268786568327291
    endloop
  endfacet
  facet normal 0 -1 0
    outer loop
      vertex 8.75 0 -10.3
      vertex 8.76 0 -9.3
      vertex 8.75 0 -9.3
    endloop
  endfacet
  facet normal 0 -1 0
    outer loop
      vertex 14.75 0 -9.25
      vertex 8.76 0 -9.3
      vertex 8.75 0 -10.3
    endloop
  endfacet
  facet normal 0 -1 0
    outer loop
      vertex 14.75 0 -9.25
      vertex 8.76 0 -9.25
      vertex 8.76 0 -9.3
    endloop
  endfacet
  facet normal 0 -1 0
    outer loop
      vertex 14.75 0 -10.3
      vertex 14.75 0 -9.25
      vertex 8.75 0 -10.3
    endloop
  endfacet
  facet normal 0 0 -1
    outer loop
      vertex 14.75 0 -10.3
      vertex 8.75 0 -10.3
      vertex 14.4921875 2.287500001490116 -10.3
    endloop
  endfacet
  facet normal 0.9937086738878859 0.11199585456604753 0
    outer loop
      vertex 14.75 0 -10.3
      vertex 14.4921875 2.287500001490116 -10.3
      vertex 14.75 0 -9.25
    endloop
  endfacet
  facet normal 0.9937086738878859 0.11199585456604753 0
    outer loop
      vertex 14.4921875 2.287500001490116 -10.3
      vertex 14.4921875 2.287500001490116 -9.25
      vertex 14.75 0 -9.25
    endloop
  endfacet
  facet normal 0 0 -1
    outer loop
      vertex 14.4921875 2.287500001490116 -10.3
      vertex 8.75 0 -10.3
      vertex 13.8125 4.575000002980232 -10.3
    endloop
  endfacet
  facet normal 0 0 -1
    outer loop
      vertex 12.8515625 6.862499997019768 -10.3
      vertex 13.8125 4.575000002980232 -10.3
      vertex 8.75 0 -10.3
    endloop
  endfacet
  facet normal 0.9585798498564178 0.28482393061196204 0
    outer loop
      vertex 14.4921875 2.287500001490116 -10.3
      vertex 13.8125 4.575000002980232 -10.3
      vertex 14.4921875 2.287500001490116 -9.25
    endloop
  endfacet
  facet normal 0.9585798498564178 0.28482393061196204 0
    outer loop
      vertex 13.8125 4.575000002980232 -10.3
      vertex 13.8125 4.575000002980232 -9.25
      vertex 14.4921875 2.287500001490116 -9.25
    endloop
  endfacet
  facet normal 0 -1 0
    outer loop
      vertex 14.75 0 -7.34
      vertex 8.75 0 7.35
      vertex 8.75 0 -7.34
    endloop
  endfacet
  facet normal 0.9937086738878859 0.11199585456604755 0
    outer loop
      vertex 14.4921875 2.287500001490116 -7.34
      vertex 14.75 0 7.35
      vertex 14.75 0 -7.34
    endloop
  endfacet
  facet normal 0.9585798498564178 0.2848239306119621 0
    outer loop
      vertex 13.8125 4.575000002980232 -7.34
      vertex 14.4921875 2.287500001490116 7.35
      vertex 14.4921875 2.287500001490116 -7.34
    endloop
  endfacet
  facet normal 0 0 -1
    outer loop
      vertex 9.0078125 16.012500002980232 -10.3
      vertex 8.75 0 -10.3
      vertex 8.75 1 -10.3
    endloop
  endfacet
  facet normal 0 0 -1
    outer loop
      vertex 12.8515625 6.862499997019768 -10.3
      vertex 8.75 0 -10.3
      vertex 10.6484375 11.4375 -10.3
    endloop
  endfacet
  facet normal 0 0 -1
    outer loop
      vertex 10.6484375 11.4375 -10.3
      vertex 8.75 0 -10.3
      vertex 9.6875 13.725000001490116 -10.3
    endloop
  endfacet
  facet normal 0.9219551228674584 0.3872967227055371 0
    outer loop
      vertex 13.8125 4.575000002980232 -10.3
      vertex 13.045850409090374 6.4 -9.25
      vertex 13.8125 4.575000002980232 -9.25
    endloop
  endfacet
  facet normal 0.9219551228674584 0.3872967227055374 -3.965649759485268e-16
    outer loop
      vertex 12.8515625 6.862499997019768 -10.3
      vertex 13.045850409090374 6.4 -9.25
      vertex 13.8125 4.575000002980232 -10.3
    endloop
  endfacet
  facet normal 0.9219551228674581 0.387296722705538 -3.601571928979539e-18
    outer loop
      vertex 12.8515625 6.862499997019768 -10.3
      vertex 13.045850409090374 6.4 -7.34
      vertex 13.045850409090374 6.4 -9.25
    endloop
  endfacet
  facet normal 0.9219551228674564 0.38729672270554194 6.893075990719671e-16
    outer loop
      vertex 12.8515625 6.862499997019768 -10.3
      vertex 13.8125 4.575000002980232 7.35
      vertex 13.045850409090374 6.4 -7.34
    endloop
  endfacet
  facet normal 0.9219551228674584 0.3872967227055371 0
    outer loop
      vertex 13.8125 4.575000002980232 7.35
      vertex 13.8125 4.575000002980232 -7.34
      vertex 13.045850409090374 6.4 -7.34
    endloop
  endfacet
  facet normal 0.9009749405630989 0.43387112888197615 0
    outer loop
      vertex 12.8515625 6.862499997019768 -10.3
      vertex 10.6484375 11.4375 -10.3
      vertex 12.8515625 6.862499997019768 10.3
    endloop
  endfacet
  facet normal 0 -1 0
    outer loop
      vertex 14.75 0 7.35
      vertex 8.75 0 7.35
      vertex 14.75 0 -7.34
    endloop
  endfacet
  facet normal 0.9937086738878859 0.11199585456604755 0
    outer loop
      vertex 14.4921875 2.287500001490116 -7.34
      vertex 14.4921875 2.287500001490116 7.35
      vertex 14.75 0 7.35
    endloop
  endfacet
  facet normal 0.9585798498564178 0.2848239306119621 0
    outer loop
      vertex 13.8125 4.575000002980232 -7.34
      vertex 13.8125 4.575000002980232 7.35
      vertex 14.4921875 2.287500001490116 7.35
    endloop
  endfacet
  facet normal 0 -1 0
    outer loop
      vertex 8.75 0 10.3
      vertex 8.75 0 9.3
      vertex 8.76 0 9.3
    endloop
  endfacet
  facet normal 0 -1 0
    outer loop
      vertex 14.75 0 9.26
      vertex 8.76 0 9.3
      vertex 8.76 0 9.26
    endloop
  endfacet
  facet normal 0 -1 0
    outer loop
      vertex 8.75 0 10.3
      vertex 8.76 0 9.3
      vertex 14.75 0 9.26
    endloop
  endfacet
  facet normal 0 -1 0
    outer loop
      vertex 14.75 0 10.3
      vertex 8.75 0 10.3
      vertex 14.75 0 9.26
    endloop
  endfacet
  facet normal 0 0 1
    outer loop
      vertex 14.75 0 10.3
      vertex 14.4921875 2.287500001490116 10.3
      vertex 8.75 0 10.3
    endloop
  endfacet
  facet normal 0.9937086738878859 0.11199585456604752 0
    outer loop
      vertex 14.75 0 10.3
      vertex 14.75 0 9.26
      vertex 14.4921875 2.287500001490116 9.26
    endloop
  endfacet
  facet normal 0.9937086738878859 0.11199585456604752 0
    outer loop
      vertex 14.75 0 10.3
      vertex 14.4921875 2.287500001490116 9.26
      vertex 14.4921875 2.287500001490116 10.3
    endloop
  endfacet
  facet normal 0 0 1
    outer loop
      vertex 14.4921875 2.287500001490116 10.3
      vertex 13.8125 4.575000002980232 10.3
      vertex 8.75 0 10.3
    endloop
  endfacet
  facet normal 0 0 1
    outer loop
      vertex 12.8515625 6.862499997019768 10.3
      vertex 8.75 0 10.3
      vertex 13.8125 4.575000002980232 10.3
    endloop
  endfacet
  facet normal 0.9585798498564178 0.28482393061196204 0
    outer loop
      vertex 14.4921875 2.287500001490116 10.3
      vertex 14.4921875 2.287500001490116 9.26
      vertex 13.8125 4.575000002980232 9.26
    endloop
  endfacet
  facet normal 0.9585798498564178 0.28482393061196204 0
    outer loop
      vertex 14.4921875 2.287500001490116 10.3
      vertex 13.8125 4.575000002980232 9.26
      vertex 13.8125 4.575000002980232 10.3
    endloop
  endfacet
  facet normal 0.9219551228674584 0.3872967227055371 -2.9570398561990196e-17
    outer loop
      vertex 12.8515625 6.862499997019768 -10.3
      vertex 13.045850409090374 6.4 7.35
      vertex 13.8125 4.575000002980232 7.35
    endloop
  endfacet
  facet normal 0.9219551228674578 0.38729672270553833 -3.601571928979534e-18
    outer loop
      vertex 12.8515625 6.862499997019768 -10.3
      vertex 13.045850409090374 6.4 9.26
      vertex 13.045850409090374 6.4 7.35
    endloop
  endfacet
  facet normal 0.9219551228674581 0.38729672270553805 0
    outer loop
      vertex 12.8515625 6.862499997019768 -10.3
      vertex 12.8515625 6.862499997019768 10.3
      vertex 13.045850409090374 6.4 9.26
    endloop
  endfacet
  facet normal 0 0 1
    outer loop
      vertex 9.0078125 16.012500002980232 10.3
      vertex 8.75 1 10.3
      vertex 8.75 0 10.3
    endloop
  endfacet
  facet normal 0 0 1
    outer loop
      vertex 12.8515625 6.862499997019768 10.3
      vertex 10.6484375 11.4375 10.3
      vertex 8.75 0 10.3
    endloop
  endfacet
  facet normal 0 0 1
    outer loop
      vertex 10.6484375 11.4375 10.3
      vertex 9.6875 13.725000001490116 10.3
      vertex 8.75 0 10.3
    endloop
  endfacet
  facet normal 0.9219551228674583 0.38729672270553706 0
    outer loop
      vertex 13.8125 4.575000002980232 10.3
      vertex 13.8125 4.575000002980232 9.26
      vertex 13.045850409090374 6.4 9.26
    endloop
  endfacet
  facet normal 0.9219551228674583 0.3872967227055373 4.033637325605551e-16
    outer loop
      vertex 12.8515625 6.862499997019768 10.3
      vertex 13.8125 4.575000002980232 10.3
      vertex 13.045850409090374 6.4 9.26
    endloop
  endfacet
  facet normal 0 0 -1
    outer loop
      vertex 9.6875 13.725000001490116 -10.3
      vertex 8.75 0 -10.3
      vertex 9.0078125 16.012500002980232 -10.3
    endloop
  endfacet
  facet normal 0 0 -1
    outer loop
      vertex 9.0078125 16.012500002980232 -10.3
      vertex 8.75 1 -10.3
      vertex 8.75 18.299999997019768 -10.3
    endloop
  endfacet
  facet normal 0.9219551233178874 0.3872967216332963 0
    outer loop
      vertex 10.6484375 11.4375 -10.3
      vertex 9.6875 13.725000001490116 -10.3
      vertex 10.6484375 11.4375 10.3
    endloop
  endfacet
  facet normal 0.993708673847289 0.11199585492625204 -9.478954974383155e-17
    outer loop
      vertex 9.0078125 16.012500002980232 -10.3
      vertex 8.75 18.299999997019768 -10.3
      vertex 8.867891700524376 17.253979093274527 -1.268786568327291
    endloop
  endfacet
  facet normal 0.9585798498564175 0.284823930611962 0
    outer loop
      vertex 9.6875 13.725000001490116 -10.3
      vertex 9.0078125 16.012500002980232 -10.3
      vertex 9.6875 13.725000001490116 10.3
    endloop
  endfacet
  facet normal 0.9937086738472891 0.11199585492625168 -2.6774508958386554e-17
    outer loop
      vertex 9.0078125 16.012500002980232 -10.3
      vertex 8.867891700524376 17.253979093274527 -1.268786568327291
      vertex 8.881068969991865 17.13706077539491 -1.1111404660392044
    endloop
  endfacet
  facet normal 0.993708673847289 0.11199585492625247 -2.6221581918657133e-17
    outer loop
      vertex 9.0078125 16.012500002980232 -10.3
      vertex 8.901899075011226 16.95224093497743 -0.7653668647301796
      vertex 8.909351305264869 16.88611932853558 -0.5805693545089247
    endloop
  endfacet
  facet normal 0.9937086738472894 0.11199585492624842 3.74985537264369e-16
    outer loop
      vertex 9.0078125 16.012500002980232 -10.3
      vertex 8.89244126863838 17.03615747130329 -0.9427934736519953
      vertex 8.901899075011226 16.95224093497743 -0.7653668647301796
    endloop
  endfacet
  facet normal 0.9937086738472896 0.11199585492624696 5.304679680454501e-16
    outer loop
      vertex 9.0078125 16.012500002980232 -10.3
      vertex 8.881068969991865 17.13706077539491 -1.1111404660392044
      vertex 8.89244126863838 17.03615747130329 -0.9427934736519953
    endloop
  endfacet
  facet normal 0.9937086738472876 0.1119958549262651 -1.1751509703070432e-15
    outer loop
      vertex 9.0078125 16.012500002980232 -10.3
      vertex 8.909351305264869 16.88611932853558 -0.5805693545089247
      vertex 8.914726190348162 16.83842943919354 -0.3901806440322565
    endloop
  endfacet
  facet normal 0.9937086738472907 0.11199585492623752 1.144926889293879e-15
    outer loop
      vertex 9.0078125 16.012500002980232 -10.3
      vertex 8.914726190348162 16.83842943919354 -0.3901806440322565
      vertex 8.917971967179541 16.809630546655608 -0.1960342806591212
    endloop
  endfacet
  facet normal 0.9937086738472919 0.11199585492622785 1.9315420604351016e-15
    outer loop
      vertex 9.0078125 16.012500002980232 -10.3
      vertex 8.917971967179541 16.809630546655608 -0.1960342806591212
      vertex 8.9190573771538 16.8 0
    endloop
  endfacet
  facet normal 0.9937086738472759 0.11199585492636846 -9.026097090014778e-15
    outer loop
      vertex 9.0078125 16.012500002980232 -10.3
      vertex 8.9190573771538 16.8 0
      vertex 8.917971967179541 16.809630546655608 0.1960342806591212
    endloop
  endfacet
  facet normal 0.993708673847289 0.11199585492625316 2.551291629725947e-17
    outer loop
      vertex 8.75 18.299999997019768 -10.3
      vertex 8.853036364544314 17.385786437626905 -1.4142135623730951
      vertex 8.867891700524376 17.253979093274527 -1.268786568327291
    endloop
  endfacet
  facet normal 0.9937086738472889 0.11199585492625302 0
    outer loop
      vertex 8.75 18.299999997019768 -10.3
      vertex 8.75 18.299999997019768 -1.9340622434134245
      vertex 8.759080562183657 18.219430645491077 -1.9138806714644176
    endloop
  endfacet
  facet normal 0.9937086738472888 0.1119958549262534 3.183985743540858e-17
    outer loop
      vertex 8.75 18.299999997019768 -10.3
      vertex 8.79990500194755 17.857206526348005 -1.76384252869671
      vertex 8.818878535975056 17.688859533960795 -1.6629392246050905
    endloop
  endfacet
  facet normal 0.9937086738472893 0.11199585492624918 -1.888300296263643e-16
    outer loop
      vertex 8.75 18.299999997019768 -10.3
      vertex 8.779908150480077 18.03463313526982 -1.8477590650225735
      vertex 8.79990500194755 17.857206526348005 -1.76384252869671
    endloop
  endfacet
  facet normal 0.9937086738472887 0.11199585492625602 2.9125794007468494e-17
    outer loop
      vertex 8.75 18.299999997019768 -10.3
      vertex 8.759080562183657 18.219430645491077 -1.9138806714644176
      vertex 8.779908150480077 18.03463313526982 -1.8477590650225735
    endloop
  endfacet
  facet normal 0.9937086738472886 0.11199585492625705 4.374605373482641e-16
    outer loop
      vertex 8.75 18.299999997019768 -10.3
      vertex 8.836646027057919 17.53121343167271 -1.546020906725474
      vertex 8.853036364544314 17.385786437626905 -1.4142135623730951
    endloop
  endfacet
  facet normal 0.9937086738472894 0.11199585492624871 -3.0484025139634414e-16
    outer loop
      vertex 8.75 18.299999997019768 -10.3
      vertex 8.818878535975056 17.688859533960795 -1.6629392246050905
      vertex 8.836646027057919 17.53121343167271 -1.546020906725474
    endloop
  endfacet
  facet normal 0.9219551233178874 0.3872967216332963 0
    outer loop
      vertex 9.6875 13.725000001490116 -10.3
      vertex 9.6875 13.725000001490116 10.3
      vertex 10.6484375 11.4375 10.3
    endloop
  endfacet
  facet normal 0.9009749405630989 0.43387112888197615 0
    outer loop
      vertex 12.8515625 6.862499997019768 10.3
      vertex 10.6484375 11.4375 -10.3
      vertex 10.6484375 11.4375 10.3
    endloop
  endfacet
  facet normal 0 0 1
    outer loop
      vertex 9.6875 13.725000001490116 10.3
      vertex 9.0078125 16.012500002980232 10.3
      vertex 8.75 0 10.3
    endloop
  endfacet
  facet normal 0 0 1
    outer loop
      vertex 9.0078125 16.012500002980232 10.3
      vertex 8.75 18.299999997019768 10.3
      vertex 8.75 1 10.3
    endloop
  endfacet
  facet normal 0.9585798498564175 0.284823930611962 0
    outer loop
      vertex 9.0078125 16.012500002980232 -10.3
      vertex 9.0078125 16.012500002980232 10.3
      vertex 9.6875 13.725000001490116 10.3
    endloop
  endfacet
  facet normal 0.9937086738472891 0.11199585492625193 0
    outer loop
      vertex 9.0078125 16.012500002980232 -10.3
      vertex 8.917971967179541 16.809630546655608 0.1960342806591212
      vertex 9.0078125 16.012500002980232 10.3
    endloop
  endfacet
  facet normal 0.9937086738472907 0.11199585492623751 -1.155578758839655e-15
    outer loop
      vertex 9.0078125 16.012500002980232 10.3
      vertex 8.917971967179541 16.809630546655608 0.1960342806591212
      vertex 8.914726190348162 16.83842943919354 0.3901806440322565
    endloop
  endfacet
  facet normal 0.9937086738472876 0.11199585492626521 1.1890471035605982e-15
    outer loop
      vertex 9.0078125 16.012500002980232 10.3
      vertex 8.914726190348162 16.83842943919354 0.3901806440322565
      vertex 8.909351305264869 16.88611932853558 0.5805693545089247
    endloop
  endfacet
  facet normal 0.993708673847289 0.11199585492625262 3.6628292933340366e-17
    outer loop
      vertex 9.0078125 16.012500002980232 10.3
      vertex 8.909351305264869 16.88611932853558 0.5805693545089247
      vertex 8.901899075011226 16.95224093497743 0.7653668647301796
    endloop
  endfacet
  facet normal 0.9937086738472894 0.11199585492624839 -3.7335576282900577e-16
    outer loop
      vertex 9.0078125 16.012500002980232 10.3
      vertex 8.901899075011226 16.95224093497743 0.7653668647301796
      vertex 8.89244126863838 17.03615747130329 0.9427934736519953
    endloop
  endfacet
  facet normal 0.9937086738472896 0.11199585492624717 -5.206424336292985e-16
    outer loop
      vertex 9.0078125 16.012500002980232 10.3
      vertex 8.89244126863838 17.03615747130329 0.9427934736519953
      vertex 8.881068969991865 17.13706077539491 1.1111404660392044
    endloop
  endfacet
  facet normal 0.9937086738472891 0.1119958549262516 2.99390264481061e-17
    outer loop
      vertex 9.0078125 16.012500002980232 10.3
      vertex 8.881068969991865 17.13706077539491 1.1111404660392044
      vertex 8.867891700524376 17.253979093274527 1.268786568327291
    endloop
  endfacet
  facet normal 0.993708673847289 0.11199585492625275 2.160246789902652e-16
    outer loop
      vertex 9.0078125 16.012500002980232 10.3
      vertex 8.867891700524376 17.253979093274527 1.268786568327291
      vertex 8.853036364544314 17.385786437626905 1.4142135623730951
    endloop
  endfacet
  facet normal 0.9937086738472887 0.11199585492625602 7.086495998955488e-16
    outer loop
      vertex 9.0078125 16.012500002980232 10.3
      vertex 8.853036364544314 17.385786437626905 1.4142135623730951
      vertex 8.836646027057919 17.53121343167271 1.546020906725474
    endloop
  endfacet
  facet normal 0.9937086738472893 0.11199585492624935 -4.901996115058317e-16
    outer loop
      vertex 9.0078125 16.012500002980232 10.3
      vertex 8.836646027057919 17.53121343167271 1.546020906725474
      vertex 8.818878535975056 17.688859533960795 1.6629392246050905
    endloop
  endfacet
  facet normal 0.993708673847289 0.11199585492625314 2.9678646182775106e-16
    outer loop
      vertex 9.0078125 16.012500002980232 10.3
      vertex 8.818878535975056 17.688859533960795 1.6629392246050905
      vertex 8.79990500194755 17.857206526348005 1.76384252869671
    endloop
  endfacet
  facet normal 0.9937086738472893 0.11199585492624936 -5.035323214375532e-16
    outer loop
      vertex 9.0078125 16.012500002980232 10.3
      vertex 8.79990500194755 17.857206526348005 1.76384252869671
      vertex 8.779908150480077 18.03463313526982 1.8477590650225735
    endloop
  endfacet
  facet normal 0.9937086738472886 0.11199585492625563 9.901892234110306e-16
    outer loop
      vertex 9.0078125 16.012500002980232 10.3
      vertex 8.779908150480077 18.03463313526982 1.8477590650225735
      vertex 8.759080562183657 18.219430645491077 1.9138806714644176
    endloop
  endfacet
  facet normal 0.993708673847289 0.11199585492625318 2.1903794209766564e-16
    outer loop
      vertex 9.0078125 16.012500002980232 10.3
      vertex 8.759080562183657 18.219430645491077 1.9138806714644176
      vertex 8.75 18.299999997019768 1.934062243413424
    endloop
  endfacet
  facet normal 0.9937086738472891 0.11199585492625203 0
    outer loop
      vertex 9.0078125 16.012500002980232 10.3
      vertex 8.75 18.299999997019768 1.934062243413424
      vertex 8.75 18.299999997019768 10.3
    endloop
  endfacet
  facet normal 0 0 -1
    outer loop
      vertex -8.75 1 9.26
      vertex -14.75 0 9.26
      vertex -14.4921875 2.287500001490116 9.26
    endloop
  endfacet
  facet normal 0 0 1
    outer loop
      vertex -5.825 6.4 7.35
      vertex -14.4921875 2.287500001490116 7.35
      vertex -14.75 0 7.35
    endloop
  endfacet
  facet normal 0 0 1
    outer loop
      vertex -5.825 6.4 7.35
      vertex -13.8125 4.575000002980232 7.35
      vertex -14.4921875 2.287500001490116 7.35
    endloop
  endfacet
  facet normal 0 0 -1
    outer loop
      vertex -8.75 1 9.26
      vertex -14.4921875 2.287500001490116 9.26
      vertex -13.8125 4.575000002980232 9.26
    endloop
  endfacet
  facet normal 0 0 -1
    outer loop
      vertex -8.75 1 9.26
      vertex -13.8125 4.575000002980232 9.26
      vertex -13.045850409090374 6.4 9.26
    endloop
  endfacet
  facet normal 0 0 1
    outer loop
      vertex -8.75 1 7.35
      vertex -14.75 0 7.35
      vertex -8.75 0 7.35
    endloop
  endfacet
  facet normal 0 0 1
    outer loop
      vertex -8.75 1 7.35
      vertex -7.75 0 7.35
      vertex -5.825 0 7.35
    endloop
  endfacet
  facet normal 0 0 -1
    outer loop
      vertex -8.76 0.9599999999999991 9.26
      vertex -8.76 0 9.26
      vertex -14.75 0 9.26
    endloop
  endfacet
  facet normal 0 0 -1
    outer loop
      vertex -8.76 0.9599999999999991 9.26
      vertex -14.75 0 9.26
      vertex -8.75 1 9.26
    endloop
  endfacet
  facet normal 0 0 -1
    outer loop
      vertex -8.75 0.9599999999999991 9.26
      vertex -8.76 0.9599999999999991 9.26
      vertex -8.75 1 9.26
    endloop
  endfacet
  facet normal 0 0 1
    outer loop
      vertex -8.75 1 7.35
      vertex -5.825 6.4 7.35
      vertex -14.75 0 7.35
    endloop
  endfacet
  facet normal 0 0 -1
    outer loop
      vertex -8.709999999999999 0.9599999999999991 9.26
      vertex -8.75 1 9.26
      vertex -5.825 6.4 9.26
    endloop
  endfacet
  facet normal 0 0 1
    outer loop
      vertex -5.825 6.4 7.35
      vertex -13.045850409090374 6.4 7.35
      vertex -13.8125 4.575000002980232 7.35
    endloop
  endfacet
  facet normal 0 -1 0
    outer loop
      vertex -5.825 6.4 7.35
      vertex -13.045850409090374 6.4 9.26
      vertex -13.045850409090374 6.4 7.35
    endloop
  endfacet
  facet normal 0 0 -1
    outer loop
      vertex -8.75 1 9.26
      vertex -13.045850409090374 6.4 9.26
      vertex -5.825 6.4 9.26
    endloop
  endfacet
  facet normal 0 -1 0
    outer loop
      vertex -5.825 6.4 7.35
      vertex -5.825 6.4 9.26
      vertex -13.045850409090374 6.4 9.26
    endloop
  endfacet
  facet normal 0 0 1
    outer loop
      vertex -8.75 1 7.35
      vertex -5.825 0 7.35
      vertex -5.825 6.4 7.35
    endloop
  endfacet
  facet normal 0 0 -1
    outer loop
      vertex -8.709999999999999 0.9599999999999991 9.26
      vertex -5.825 6.4 9.26
      vertex -5.825 0.9599999999999991 9.26
    endloop
  endfacet
  facet normal 0 0 1
    outer loop
      vertex 5.825 6.4 7.35
      vertex 5.825 0 7.35
      vertex 7.75 0 7.35
    endloop
  endfacet
  facet normal 0 0 -1
    outer loop
      vertex 5.825 0.9599999999999991 9.26
      vertex 5.825 6.4 9.26
      vertex 8.709999999999999 0.9599999999999991 9.26
    endloop
  endfacet
  facet normal 0 0 1
    outer loop
      vertex 8.75 1 7.35
      vertex 8.75 0 7.35
      vertex 14.75 0 7.35
    endloop
  endfacet
  facet normal 0 0 -1
    outer loop
      vertex 8.76 0.9599999999999991 9.26
      vertex 8.75 0.9599999999999991 9.26
      vertex 8.75 1 9.26
    endloop
  endfacet
  facet normal 0 0 -1
    outer loop
      vertex 8.76 0.9599999999999991 9.26
      vertex 14.75 0 9.26
      vertex 8.76 0 9.26
    endloop
  endfacet
  facet normal 0 0 -1
    outer loop
      vertex 8.76 0.9599999999999991 9.26
      vertex 8.75 1 9.26
      vertex 14.75 0 9.26
    endloop
  endfacet
  facet normal 0 0 1
    outer loop
      vertex 5.825 6.4 7.35
      vertex 7.75 0 7.35
      vertex 8.75 1 7.35
    endloop
  endfacet
  facet normal 0 0 -1
    outer loop
      vertex 5.825 6.4 9.26
      vertex 8.75 1 9.26
      vertex 8.709999999999999 0.9599999999999991 9.26
    endloop
  endfacet
  facet normal 0 0 -1
    outer loop
      vertex 5.825 6.4 9.26
      vertex 14.75 0 9.26
      vertex 8.75 1 9.26
    endloop
  endfacet
  facet normal 0 0 1
    outer loop
      vertex 8.75 1 7.35
      vertex 14.75 0 7.35
      vertex 14.4921875 2.287500001490116 7.35
    endloop
  endfacet
  facet normal 0 0 1
    outer loop
      vertex 8.75 1 7.35
      vertex 14.4921875 2.287500001490116 7.35
      vertex 13.8125 4.575000002980232 7.35
    endloop
  endfacet
  facet normal 0 0 1
    outer loop
      vertex 8.75 1 7.35
      vertex 13.8125 4.575000002980232 7.35
      vertex 13.045850409090374 6.4 7.35
    endloop
  endfacet
  facet normal 0 0 -1
    outer loop
      vertex 5.825 6.4 9.26
      vertex 14.4921875 2.287500001490116 9.26
      vertex 14.75 0 9.26
    endloop
  endfacet
  facet normal 0 0 -1
    outer loop
      vertex 13.8125 4.575000002980232 9.26
      vertex 14.4921875 2.287500001490116 9.26
      vertex 13.045850409090374 6.4 9.26
    endloop
  endfacet
  facet normal 0 0 1
    outer loop
      vertex 5.825 6.4 7.35
      vertex 8.75 1 7.35
      vertex 13.045850409090374 6.4 7.35
    endloop
  endfacet
  facet normal 0 -1 0
    outer loop
      vertex 5.825 6.4 7.35
      vertex 13.045850409090374 6.4 7.35
      vertex 5.825 6.4 9.26
    endloop
  endfacet
  facet normal 0 -1 0
    outer loop
      vertex 5.825 6.4 9.26
      vertex 13.045850409090374 6.4 7.35
      vertex 13.045850409090374 6.4 9.26
    endloop
  endfacet
  facet normal 0 0 -1
    outer loop
      vertex 5.825 6.4 9.26
      vertex 13.045850409090374 6.4 9.26
      vertex 14.4921875 2.287500001490116 9.26
    endloop
  endfacet
  facet normal 0 0 -1
    outer loop
      vertex -8.75 1 -7.34
      vertex -14.75 0 -7.34
      vertex -14.4921875 2.287500001490116 -7.34
    endloop
  endfacet
  facet normal 0 0 1
    outer loop
      vertex -13.8125 4.575000002980232 -9.25
      vertex -14.4921875 2.287500001490116 -9.25
      vertex -13.045850409090374 6.4 -9.25
    endloop
  endfacet
  facet normal 0 0 1
    outer loop
      vertex -5.825 6.4 -9.25
      vertex -14.4921875 2.287500001490116 -9.25
      vertex -14.75 0 -9.25
    endloop
  endfacet
  facet normal 0 0 -1
    outer loop
      vertex -8.75 1 -7.34
      vertex -14.4921875 2.287500001490116 -7.34
      vertex -13.8125 4.575000002980232 -7.34
    endloop
  endfacet
  facet normal 0 0 -1
    outer loop
      vertex -8.75 1 -7.34
      vertex -13.8125 4.575000002980232 -7.34
      vertex -13.045850409090374 6.4 -7.34
    endloop
  endfacet
  facet normal 0 0 1
    outer loop
      vertex -8.76 0.9499999999999993 -9.25
      vertex -14.75 0 -9.25
      vertex -8.76 0 -9.25
    endloop
  endfacet
  facet normal 0 0 1
    outer loop
      vertex -8.76 0.9499999999999993 -9.25
      vertex -8.75 1 -9.25
      vertex -14.75 0 -9.25
    endloop
  endfacet
  facet normal 0 0 1
    outer loop
      vertex -8.76 0.9499999999999993 -9.25
      vertex -8.75 0.9499999999999993 -9.25
      vertex -8.75 1 -9.25
    endloop
  endfacet
  facet normal 0 0 -1
    outer loop
      vertex -8.75 1 -7.34
      vertex -8.75 0 -7.34
      vertex -14.75 0 -7.34
    endloop
  endfacet
  facet normal 0 0 1
    outer loop
      vertex -8.75 1 -9.25
      vertex -5.825 6.4 -9.25
      vertex -14.75 0 -9.25
    endloop
  endfacet
  facet normal 0 0 1
    outer loop
      vertex -8.7 0.9499999999999993 -9.25
      vertex -5.825 6.4 -9.25
      vertex -8.75 1 -9.25
    endloop
  endfacet
  facet normal 0 0 -1
    outer loop
      vertex -8.75 1 -7.34
      vertex -5.825 6.4 -7.34
      vertex -7.75 0 -7.34
    endloop
  endfacet
  facet normal 0 0 1
    outer loop
      vertex -5.825 6.4 -9.25
      vertex -13.045850409090374 6.4 -9.25
      vertex -14.4921875 2.287500001490116 -9.25
    endloop
  endfacet
  facet normal 0 -1 0
    outer loop
      vertex -5.825 6.4 -9.25
      vertex -13.045850409090374 6.4 -7.34
      vertex -13.045850409090374 6.4 -9.25
    endloop
  endfacet
  facet normal 0 -1 0
    outer loop
      vertex -5.825 6.4 -9.25
      vertex -5.825 6.4 -7.34
      vertex -13.045850409090374 6.4 -7.34
    endloop
  endfacet
  facet normal 0 0 -1
    outer loop
      vertex -8.75 1 -7.34
      vertex -13.045850409090374 6.4 -7.34
      vertex -5.825 6.4 -7.34
    endloop
  endfacet
  facet normal 0 0 -1
    outer loop
      vertex -5.825 6.4 -7.34
      vertex -5.825 0 -7.34
      vertex -7.75 0 -7.34
    endloop
  endfacet
  facet normal 0 0 1
    outer loop
      vertex -8.7 0.9499999999999993 -9.25
      vertex -5.825 0.9499999999999993 -9.25
      vertex -5.825 6.4 -9.25
    endloop
  endfacet
  facet normal 0 0 1
    outer loop
      vertex 5.825 0.9499999999999993 -9.25
      vertex 8.7 0.9499999999999993 -9.25
      vertex 5.825 6.4 -9.25
    endloop
  endfacet
  facet normal 0 0 -1
    outer loop
      vertex 5.825 6.4 -7.34
      vertex 8.75 1 -7.34
      vertex 5.825 0 -7.34
    endloop
  endfacet
  facet normal 0 0 1
    outer loop
      vertex 8.76 0.9499999999999993 -9.25
      vertex 8.75 1 -9.25
      vertex 8.75 0.9499999999999993 -9.25
    endloop
  endfacet
  facet normal 0 0 1
    outer loop
      vertex 8.76 0.9499999999999993 -9.25
      vertex 8.76 0 -9.25
      vertex 14.75 0 -9.25
    endloop
  endfacet
  facet normal 0 0 1
    outer loop
      vertex 8.76 0.9499999999999993 -9.25
      vertex 14.75 0 -9.25
      vertex 8.75 1 -9.25
    endloop
  endfacet
  facet normal 0 0 -1
    outer loop
      vertex 8.75 1 -7.34
      vertex 7.75 0 -7.34
      vertex 5.825 0 -7.34
    endloop
  endfacet
  facet normal 0 0 -1
    outer loop
      vertex 8.75 1 -7.34
      vertex 14.75 0 -7.34
      vertex 8.75 0 -7.34
    endloop
  endfacet
  facet normal 0 0 1
    outer loop
      vertex 5.825 6.4 -9.25
      vertex 8.7 0.9499999999999993 -9.25
      vertex 8.75 1 -9.25
    endloop
  endfacet
  facet normal 0 0 -1
    outer loop
      vertex 5.825 6.4 -7.34
      vertex 14.75 0 -7.34
      vertex 8.75 1 -7.34
    endloop
  endfacet
  facet normal 0 0 1
    outer loop
      vertex 8.75 1 -9.25
      vertex 14.75 0 -9.25
      vertex 14.4921875 2.287500001490116 -9.25
    endloop
  endfacet
  facet normal 0 0 1
    outer loop
      vertex 8.75 1 -9.25
      vertex 14.4921875 2.287500001490116 -9.25
      vertex 13.8125 4.575000002980232 -9.25
    endloop
  endfacet
  facet normal 0 0 1
    outer loop
      vertex 8.75 1 -9.25
      vertex 13.8125 4.575000002980232 -9.25
      vertex 13.045850409090374 6.4 -9.25
    endloop
  endfacet
  facet normal 0 0 -1
    outer loop
      vertex 5.825 6.4 -7.34
      vertex 14.4921875 2.287500001490116 -7.34
      vertex 14.75 0 -7.34
    endloop
  endfacet
  facet normal 0 0 -1
    outer loop
      vertex 5.825 6.4 -7.34
      vertex 13.8125 4.575000002980232 -7.34
      vertex 14.4921875 2.287500001490116 -7.34
    endloop
  endfacet
  facet normal 0 0 1
    outer loop
      vertex 5.825 6.4 -9.25
      vertex 8.75 1 -9.25
      vertex 13.045850409090374 6.4 -9.25
    endloop
  endfacet
  facet normal 0 -1 0
    outer loop
      vertex 5.825 6.4 -9.25
      vertex 13.045850409090374 6.4 -9.25
      vertex 5.825 6.4 -7.34
    endloop
  endfacet
  facet normal 0 -1 0
    outer loop
      vertex 5.825 6.4 -7.34
      vertex 13.045850409090374 6.4 -9.25
      vertex 13.045850409090374 6.4 -7.34
    endloop
  endfacet
  facet normal 0 0 -1
    outer loop
      vertex 5.825 6.4 -7.34
      vertex 13.045850409090374 6.4 -7.34
      vertex 13.8125 4.575000002980232 -7.34
    endloop
  endfacet
  facet normal 1 0 0
    outer loop
      vertex -8.76 0.9599999999999991 9.26
      vertex -8.76 0 9.3
      vertex -8.76 0 9.26
    endloop
  endfacet
  facet normal 0 0 -1
    outer loop
      vertex -8.76 1 9.3
      vertex -8.75 0 9.3
      vertex -8.76 0 9.3
    endloop
  endfacet
  facet normal 1 0 0
    outer loop
      vertex -8.76 0.9599999999999991 9.26
      vertex -8.76 1 9.3
      vertex -8.76 0 9.3
    endloop
  endfacet
  facet normal 0 0 -1
    outer loop
      vertex -8.76 1 9.3
      vertex -8.75 1 9.3
      vertex -8.75 0 9.3
    endloop
  endfacet
  facet normal 0 -0.7071067811865476 0.7071067811865476
    outer loop
      vertex -8.75 0.9599999999999991 9.26
      vertex -8.75 1 9.3
      vertex -8.76 0.9599999999999991 9.26
    endloop
  endfacet
  facet normal 1.6620900636998577e-16 -0.7071067811865476 0.7071067811865476
    outer loop
      vertex -8.76 0.9599999999999991 9.26
      vertex -8.75 1 9.3
      vertex -8.76 1 9.3
    endloop
  endfacet
  facet normal 0 0 -1
    outer loop
      vertex -8.75 1 9.3
      vertex -5.825 1 9.3
      vertex -7.75 0 9.3
    endloop
  endfacet
  facet normal 0 -0.7071067811865476 0.7071067811865476
    outer loop
      vertex -8.709999999999999 0.9599999999999991 9.26
      vertex -5.825 0.9599999999999991 9.26
      vertex -8.75 1 9.3
    endloop
  endfacet
  facet normal 0 0 -1
    outer loop
      vertex -5.825 1 9.3
      vertex -5.825 0 9.3
      vertex -7.75 0 9.3
    endloop
  endfacet
  facet normal 0 -0.7071067811865475 0.7071067811865475
    outer loop
      vertex -8.75 1 9.3
      vertex -5.825 0.9599999999999991 9.26
      vertex -5.825 1 9.3
    endloop
  endfacet
  facet normal 0 0 -1
    outer loop
      vertex 5.825 1 9.3
      vertex 7.75 0 9.3
      vertex 5.825 0 9.3
    endloop
  endfacet
  facet normal 0 -0.7071067811865476 0.7071067811865476
    outer loop
      vertex 5.825 0.9599999999999991 9.26
      vertex 8.709999999999999 0.9599999999999991 9.26
      vertex 5.825 1 9.3
    endloop
  endfacet
  facet normal 0 0 -1
    outer loop
      vertex 5.825 1 9.3
      vertex 8.75 1 9.3
      vertex 7.75 0 9.3
    endloop
  endfacet
  facet normal 0 -0.7071067811865475 0.7071067811865475
    outer loop
      vertex 5.825 1 9.3
      vertex 8.709999999999999 0.9599999999999991 9.26
      vertex 8.75 1 9.3
    endloop
  endfacet
  facet normal 0 0 -1
    outer loop
      vertex 8.75 1 9.3
      vertex 8.76 0 9.3
      vertex 8.75 0 9.3
    endloop
  endfacet
  facet normal -1 0 0
    outer loop
      vertex 8.76 0.9599999999999991 9.26
      vertex 8.76 0 9.26
      vertex 8.76 0 9.3
    endloop
  endfacet
  facet normal 0 0 -1
    outer loop
      vertex 8.76 1 9.3
      vertex 8.76 0 9.3
      vertex 8.75 1 9.3
    endloop
  endfacet
  facet normal 0 -0.7071067811865476 0.7071067811865476
    outer loop
      vertex 8.76 0.9599999999999991 9.26
      vertex 8.76 1 9.3
      vertex 8.75 0.9599999999999991 9.26
    endloop
  endfacet
  facet normal 1.6620900636998577e-16 -0.7071067811865476 0.7071067811865476
    outer loop
      vertex 8.75 0.9599999999999991 9.26
      vertex 8.76 1 9.3
      vertex 8.75 1 9.3
    endloop
  endfacet
  facet normal -1 0 0
    outer loop
      vertex 8.76 0.9599999999999991 9.26
      vertex 8.76 0 9.3
      vertex 8.76 1 9.3
    endloop
  endfacet
  facet normal 1 0 0
    outer loop
      vertex -8.76 0.9499999999999993 -9.25
      vertex -8.76 0 -9.25
      vertex -8.76 0 -9.3
    endloop
  endfacet
  facet normal 0 0 1
    outer loop
      vertex -8.75 1 -9.3
      vertex -8.76 0 -9.3
      vertex -8.75 0 -9.3
    endloop
  endfacet
  facet normal 1 0 0
    outer loop
      vertex -8.76 0.9499999999999993 -9.25
      vertex -8.76 0 -9.3
      vertex -8.76 1 -9.3
    endloop
  endfacet
  facet normal 0 0 1
    outer loop
      vertex -8.76 1 -9.3
      vertex -8.76 0 -9.3
      vertex -8.75 1 -9.3
    endloop
  endfacet
  facet normal 0 -0.7071067811865475 -0.7071067811865475
    outer loop
      vertex -8.76 0.9499999999999993 -9.25
      vertex -8.76 1 -9.3
      vertex -8.75 0.9499999999999993 -9.25
    endloop
  endfacet
  facet normal 1.7172886266782512e-16 -0.7071067811865475 -0.7071067811865475
    outer loop
      vertex -8.75 0.9499999999999993 -9.25
      vertex -8.76 1 -9.3
      vertex -8.75 1 -9.3
    endloop
  endfacet
  facet normal 0 0 1
    outer loop
      vertex -8.75 1 -9.3
      vertex -7.75 0 -9.3
      vertex -5.825 1 -9.3
    endloop
  endfacet
  facet normal 5.871072227959708e-19 -0.7071067811865476 -0.7071067811865475
    outer loop
      vertex -8.7 0.9499999999999993 -9.25
      vertex -8.75 1 -9.3
      vertex -5.825 1 -9.3
    endloop
  endfacet
  facet normal 0 0 1
    outer loop
      vertex -5.825 1 -9.3
      vertex -7.75 0 -9.3
      vertex -5.825 0 -9.3
    endloop
  endfacet
  facet normal 0 -0.7071067811865475 -0.7071067811865475
    outer loop
      vertex -8.7 0.9499999999999993 -9.25
      vertex -5.825 1 -9.3
      vertex -5.825 0.9499999999999993 -9.25
    endloop
  endfacet
  facet normal 0 0 1
    outer loop
      vertex 5.825 1 -9.3
      vertex 5.825 0 -9.3
      vertex 7.75 0 -9.3
    endloop
  endfacet
  facet normal 5.871072227959708e-19 -0.7071067811865475 -0.7071067811865475
    outer loop
      vertex 5.825 0.9499999999999993 -9.25
      vertex 5.825 1 -9.3
      vertex 8.75 1 -9.3
    endloop
  endfacet
  facet normal 0 0 1
    outer loop
      vertex 5.825 1 -9.3
      vertex 7.75 0 -9.3
      vertex 8.75 1 -9.3
    endloop
  endfacet
  facet normal 0 -0.7071067811865475 -0.7071067811865475
    outer loop
      vertex 5.825 0.9499999999999993 -9.25
      vertex 8.75 1 -9.3
      vertex 8.7 0.9499999999999993 -9.25
    endloop
  endfacet
  facet normal 0 0 1
    outer loop
      vertex 8.76 1 -9.3
      vertex 8.75 0 -9.3
      vertex 8.76 0 -9.3
    endloop
  endfacet
  facet normal -1 0 0
    outer loop
      vertex 8.76 0.9499999999999993 -9.25
      vertex 8.76 0 -9.3
      vertex 8.76 0 -9.25
    endloop
  endfacet
  facet normal 0 0 1
    outer loop
      vertex 8.76 1 -9.3
      vertex 8.75 1 -9.3
      vertex 8.75 0 -9.3
    endloop
  endfacet
  facet normal 0 -0.7071067811865475 -0.7071067811865475
    outer loop
      vertex 8.76 0.9499999999999993 -9.25
      vertex 8.75 0.9499999999999993 -9.25
      vertex 8.75 1 -9.3
    endloop
  endfacet
  facet normal 1.7172886266782512e-16 -0.7071067811865475 -0.7071067811865475
    outer loop
      vertex 8.76 0.9499999999999993 -9.25
      vertex 8.75 1 -9.3
      vertex 8.76 1 -9.3
    endloop
  endfacet
  facet normal -1 0 0
    outer loop
      vertex 8.76 0.9499999999999993 -9.25
      vertex 8.76 1 -9.3
      vertex 8.76 0 -9.3
    endloop
  endfacet
  facet normal 0.7071067811865475 -0.7071067811865475 0
    outer loop
      vertex 8.75 1 -9.3
      vertex 7.75 0 -9.3
      vertex 7.75 0 -10.3
    endloop
  endfacet
  facet normal -1 0 0
    outer loop
      vertex 8.75 0 -10.3
      vertex 8.75 0 -9.3
      vertex 8.75 1 -10.3
    endloop
  endfacet
  facet normal 0.7071067811865475 -0.7071067811865475 0
    outer loop
      vertex 8.75 1 -9.3
      vertex 7.75 0 -10.3
      vertex 8.75 1 -10.3
    endloop
  endfacet
  facet normal -1 0 0
    outer loop
      vertex 8.75 1 -9.3
      vertex 8.75 1 -10.3
      vertex 8.75 0 -9.3
    endloop
  endfacet
  facet normal 0.7071067811865476 -0.7071067811865476 -3.4345772533563803e-17
    outer loop
      vertex 8.7 0.9499999999999993 -9.25
      vertex 8.75 1 -9.3
      vertex 8.75 1 -9.25
    endloop
  endfacet
  facet normal -1 0 0
    outer loop
      vertex 8.75 0.9499999999999993 -9.25
      vertex 8.75 1 -9.25
      vertex 8.75 1 -9.3
    endloop
  endfacet
  facet normal -1 0 0
    outer loop
      vertex 8.75 1 -7.34
      vertex 8.75 0 -7.34
      vertex 8.75 0 7.35
    endloop
  endfacet
  facet normal 0.7071067811865475 -0.7071067811865475 0
    outer loop
      vertex 8.75 1 -7.34
      vertex 8.75 1 7.35
      vertex 7.75 0 -7.34
    endloop
  endfacet
  facet normal 0.7071067811865475 -0.7071067811865475 0
    outer loop
      vertex 8.75 1 7.35
      vertex 7.75 0 7.35
      vertex 7.75 0 -7.34
    endloop
  endfacet
  facet normal -1 0 0
    outer loop
      vertex 8.75 1 -7.34
      vertex 8.75 0 7.35
      vertex 8.75 1 7.35
    endloop
  endfacet
  facet normal 0.7071067811865475 -0.7071067811865475 0
    outer loop
      vertex 7.75 0 10.3
      vertex 7.75 0 9.3
      vertex 8.75 1 10.3
    endloop
  endfacet
  facet normal -1 0 0
    outer loop
      vertex 8.75 1 9.3
      vertex 8.75 0 9.3
      vertex 8.75 0 10.3
    endloop
  endfacet
  facet normal 0.7071067811865475 -0.7071067811865475 0
    outer loop
      vertex 8.75 1 9.3
      vertex 8.75 1 10.3
      vertex 7.75 0 9.3
    endloop
  endfacet
  facet normal 0.7071067811865475 -0.7071067811865475 4.15522515924946e-17
    outer loop
      vertex 8.709999999999999 0.9599999999999991 9.26
      vertex 8.75 1 9.26
      vertex 8.75 1 9.3
    endloop
  endfacet
  facet normal -1 0 0
    outer loop
      vertex 8.75 0.9599999999999991 9.26
      vertex 8.75 1 9.3
      vertex 8.75 1 9.26
    endloop
  endfacet
  facet normal -1 0 0
    outer loop
      vertex 8.75 1 9.3
      vertex 8.75 0 10.3
      vertex 8.75 1 10.3
    endloop
  endfacet
  facet normal 1 0 0
    outer loop
      vertex -8.75 1 -9.3
      vertex -8.75 0 -9.3
      vertex -8.75 0 -10.3
    endloop
  endfacet
  facet normal 1 0 0
    outer loop
      vertex -8.75 1 -9.3
      vertex -8.75 0 -10.3
      vertex -8.75 1 -10.3
    endloop
  endfacet
  facet normal -0.7071067811865475 -0.7071067811865475 0
    outer loop
      vertex -8.75 1 -9.3
      vertex -8.75 1 -10.3
      vertex -7.75 0 -9.3
    endloop
  endfacet
  facet normal 1 0 0
    outer loop
      vertex -8.75 0.9499999999999993 -9.25
      vertex -8.75 1 -9.3
      vertex -8.75 1 -9.25
    endloop
  endfacet
  facet normal -0.7071067811865476 -0.7071067811865476 3.4345772533563803e-17
    outer loop
      vertex -8.7 0.9499999999999993 -9.25
      vertex -8.75 1 -9.25
      vertex -8.75 1 -9.3
    endloop
  endfacet
  facet normal -0.7071067811865475 -0.7071067811865475 0
    outer loop
      vertex -7.75 0 -10.3
      vertex -7.75 0 -9.3
      vertex -8.75 1 -10.3
    endloop
  endfacet
  facet normal 1 0 0
    outer loop
      vertex -8.75 1 -7.34
      vertex -8.75 1 7.35
      vertex -8.75 0 -7.34
    endloop
  endfacet
  facet normal -0.7071067811865475 -0.7071067811865475 0
    outer loop
      vertex -8.75 1 -7.34
      vertex -7.75 0 -7.34
      vertex -7.75 0 7.35
    endloop
  endfacet
  facet normal 1 0 0
    outer loop
      vertex -8.75 1 7.35
      vertex -8.75 0 7.35
      vertex -8.75 0 -7.34
    endloop
  endfacet
  facet normal -0.7071067811865475 -0.7071067811865475 0
    outer loop
      vertex -8.75 1 -7.34
      vertex -7.75 0 7.35
      vertex -8.75 1 7.35
    endloop
  endfacet
  facet normal 1 0 0
    outer loop
      vertex -8.75 0 10.3
      vertex -8.75 0 9.3
      vertex -8.75 1 10.3
    endloop
  endfacet
  facet normal 1 0 0
    outer loop
      vertex -8.75 1 9.3
      vertex -8.75 1 10.3
      vertex -8.75 0 9.3
    endloop
  endfacet
  facet normal 1 0 0
    outer loop
      vertex -8.75 0.9599999999999991 9.26
      vertex -8.75 1 9.26
      vertex -8.75 1 9.3
    endloop
  endfacet
  facet normal -0.7071067811865475 -0.7071067811865475 -4.15522515924946e-17
    outer loop
      vertex -8.709999999999999 0.9599999999999991 9.26
      vertex -8.75 1 9.3
      vertex -8.75 1 9.26
    endloop
  endfacet
  facet normal -0.7071067811865475 -0.7071067811865475 0
    outer loop
      vertex -8.75 1 9.3
      vertex -7.75 0 10.3
      vertex -8.75 1 10.3
    endloop
  endfacet
  facet normal -0.7071067811865475 -0.7071067811865475 0
    outer loop
      vertex -8.75 1 9.3
      vertex -7.75 0 9.3
      vertex -7.75 0 10.3
    endloop
  endfacet
  facet normal 1 0 0
    outer loop
      vertex -5.825 1 -9.3
      vertex -5.825 0 -9.3
      vertex -5.825 0 -10.3
    endloop
  endfacet
  facet normal 1 0 0
    outer loop
      vertex -5.825 1 -9.3
      vertex -5.825 0 -10.3
      vertex -5.825 6.4 -9.25
    endloop
  endfacet
  facet normal 1 0 0
    outer loop
      vertex -5.825 0.9499999999999993 -9.25
      vertex -5.825 1 -9.3
      vertex -5.825 6.4 -9.25
    endloop
  endfacet
  facet normal 1 0 0
    outer loop
      vertex -5.825 6.4 -7.34
      vertex -5.825 0 7.35
      vertex -5.825 0 -7.34
    endloop
  endfacet
  facet normal 1 0 0
    outer loop
      vertex -5.825 6.4 -9.25
      vertex -5.825 0 -10.3
      vertex -5.825 15.9 -10.3
    endloop
  endfacet
  facet normal 1 0 0
    outer loop
      vertex -5.825 6.4 -7.34
      vertex -5.825 6.4 7.35
      vertex -5.825 0 7.35
    endloop
  endfacet
  facet normal 1 0 0
    outer loop
      vertex -5.825 1 9.3
      vertex -5.825 0 10.3
      vertex -5.825 0 9.3
    endloop
  endfacet
  facet normal 1 0 0
    outer loop
      vertex -5.825 0.9599999999999991 9.26
      vertex -5.825 6.4 9.26
      vertex -5.825 1 9.3
    endloop
  endfacet
  facet normal 1 0 0
    outer loop
      vertex -5.825 1 9.3
      vertex -5.825 15.9 10.3
      vertex -5.825 0 10.3
    endloop
  endfacet
  facet normal 1 0 0
    outer loop
      vertex -5.825 1 9.3
      vertex -5.825 6.4 9.26
      vertex -5.825 15.9 10.3
    endloop
  endfacet
  facet normal 1 0 0
    outer loop
      vertex -5.825 6.4 -9.25
      vertex -5.825 15.9 -10.3
      vertex -5.825 6.4 -7.34
    endloop
  endfacet
  facet normal 1 0 0
    outer loop
      vertex -5.825 6.4 -7.34
      vertex -5.825 15.9 -10.3
      vertex -5.825 15.9 10.3
    endloop
  endfacet
  facet normal 1 0 0
    outer loop
      vertex -5.825 6.4 -7.34
      vertex -5.825 15.9 10.3
      vertex -5.825 6.4 7.35
    endloop
  endfacet
  facet normal 1 0 0
    outer loop
      vertex -5.825 6.4 7.35
      vertex -5.825 15.9 10.3
      vertex -5.825 6.4 9.26
    endloop
  endfacet
  facet normal 0 -1 0
    outer loop
      vertex -5.825 15.9 -10.3
      vertex 5.825 15.9 10.3
      vertex -5.825 15.9 10.3
    endloop
  endfacet
  facet normal -1 0 0
    outer loop
      vertex 5.825 1 -9.3
      vertex 5.825 0 -10.3
      vertex 5.825 0 -9.3
    endloop
  endfacet
  facet normal -1 0 0
    outer loop
      vertex 5.825 0.9499999999999993 -9.25
      vertex 5.825 6.4 -9.25
      vertex 5.825 1 -9.3
    endloop
  endfacet
  facet normal -1 0 0
    outer loop
      vertex 5.825 6.4 -7.34
      vertex 5.825 0 -7.34
      vertex 5.825 6.4 7.35
    endloop
  endfacet
  facet normal -1 0 0
    outer loop
      vertex 5.825 1 -9.3
      vertex 5.825 15.9 -10.3
      vertex 5.825 0 -10.3
    endloop
  endfacet
  facet normal -1 0 0
    outer loop
      vertex 5.825 1 -9.3
      vertex 5.825 6.4 -9.25
      vertex 5.825 15.9 -10.3
    endloop
  endfacet
  facet normal -1 0 0
    outer loop
      vertex 5.825 6.4 7.35
      vertex 5.825 0 -7.34
      vertex 5.825 0 7.35
    endloop
  endfacet
  facet normal -1 0 0
    outer loop
      vertex 5.825 1 9.3
      vertex 5.825 0 9.3
      vertex 5.825 0 10.3
    endloop
  endfacet
  facet normal -1 0 0
    outer loop
      vertex 5.825 1 9.3
      vertex 5.825 0 10.3
      vertex 5.825 6.4 9.26
    endloop
  endfacet
  facet normal -1 0 0
    outer loop
      vertex 5.825 0.9599999999999991 9.26
      vertex 5.825 1 9.3
      vertex 5.825 6.4 9.26
    endloop
  endfacet
  facet normal -1 0 0
    outer loop
      vertex 5.825 6.4 9.26
      vertex 5.825 0 10.3
      vertex 5.825 15.9 10.3
    endloop
  endfacet
  facet normal -1 0 0
    outer loop
      vertex 5.825 6.4 -9.25
      vertex 5.825 6.4 -7.34
      vertex 5.825 15.9 -10.3
    endloop
  endfacet
  facet normal -1 0 0
    outer loop
      vertex 5.825 6.4 -7.34
      vertex 5.825 6.4 7.35
      vertex 5.825 15.9 -10.3
    endloop
  endfacet
  facet normal 0 -1 0
    outer loop
      vertex -5.825 15.9 -10.3
      vertex 5.825 15.9 -10.3
      vertex 5.825 15.9 10.3
    endloop
  endfacet
  facet normal -1 0 0
    outer loop
      vertex 5.825 6.4 7.35
      vertex 5.825 15.9 10.3
      vertex 5.825 15.9 -10.3
    endloop
  endfacet
  facet normal -1 0 0
    outer loop
      vertex 5.825 6.4 7.35
      vertex 5.825 6.4 9.26
      vertex 5.825 15.9 10.3
    endloop
  endfacet
  facet normal 0 0.2429801887026534 0.9700312509904117
    outer loop
      vertex -8.75 18.299999997019768 -1.934062243413424
      vertex 1.6430140423688755 18.3 -1.9340622441599336
      vertex -8.75 18.3 -1.9340622441599336
    endloop
  endfacet
  facet normal 2.728222588543026e-18 0.24298017990326184 0.9700312531945444
    outer loop
      vertex -8.759080562183657 18.219430645491077 -1.9138806714644176
      vertex 1.6430140423688755 18.3 -1.9340622441599336
      vertex -8.75 18.299999997019768 -1.934062243413424
    endloop
  endfacet
  facet normal -3.873778281636655e-19 0.8577286100002709 0.5141027441932238
    outer loop
      vertex -8.881068969991865 17.13706077539491 -1.1111404660392044
      vertex -8.89244126863838 17.03615747130329 -0.9427934736519953
      vertex 8.89244126863838 17.03615747130329 -0.9427934736519953
    endloop
  endfacet
  facet normal -9.392246587977913e-20 0.9039892931234457 0.4275550934302772
    outer loop
      vertex -8.89244126863838 17.03615747130329 -0.9427934736519953
      vertex -8.901899075011226 16.95224093497743 -0.7653668647301796
      vertex 8.901899075011226 16.95224093497743 -0.7653668647301796
    endloop
  endfacet
  facet normal -2.827470192337512e-21 0.9700312531945455 0.24298017990325774
    outer loop
      vertex -8.909351305264869 16.88611932853558 -0.5805693545089247
      vertex -8.914726190348162 16.83842943919354 -0.3901806440322565
      vertex 8.914726190348162 16.83842943919354 -0.3901806440322565
    endloop
  endfacet
  facet normal -1.247754887670555e-21 0.9891765099647818 0.14673047445535575
    outer loop
      vertex -8.914726190348162 16.83842943919354 -0.3901806440322565
      vertex -8.917971967179541 16.809630546655608 -0.1960342806591212
      vertex 8.917971967179541 16.809630546655608 -0.1960342806591212
    endloop
  endfacet
  facet normal -1.928166400681518e-20 0.9987954562051721 0.04906767432742435
    outer loop
      vertex -8.917971967179541 16.809630546655608 -0.1960342806591212
      vertex -8.9190573771538 16.8 0
      vertex 8.9190573771538 16.8 0
    endloop
  endfacet
  facet normal 7.717651574254645e-21 0.9415440651830166 0.33688985339223176
    outer loop
      vertex -8.901899075011226 16.95224093497743 -0.7653668647301796
      vertex -8.909351305264869 16.88611932853558 -0.5805693545089247
      vertex 8.909351305264869 16.88611932853558 -0.5805693545089247
    endloop
  endfacet
  facet normal -2.3663684081569626e-19 0.7409511253549618 0.6715589548470156
    outer loop
      vertex -8.853036364544314 17.385786437626905 -1.4142135623730951
      vertex -8.867891700524376 17.253979093274527 -1.268786568327291
      vertex 8.867891700524376 17.253979093274527 -1.268786568327291
    endloop
  endfacet
  facet normal 0 0.671558954847013 0.7409511253549641
    outer loop
      vertex -8.853036364544314 17.385786437626905 -1.4142135623730951
      vertex 8.853036364544314 17.385786437626905 -1.4142135623730951
      vertex -8.836646027057919 17.53121343167271 -1.546020906725474
    endloop
  endfacet
  facet normal 0 0.5956993044924406 0.8032075314806396
    outer loop
      vertex -8.836646027057919 17.53121343167271 -1.546020906725474
      vertex 8.836646027057919 17.53121343167271 -1.546020906725474
      vertex -8.818878535975056 17.688859533960795 -1.6629392246050905
    endloop
  endfacet
  facet normal 0 0.5141027441932192 0.8577286100002735
    outer loop
      vertex -8.818878535975056 17.688859533960795 -1.6629392246050905
      vertex 8.818878535975056 17.688859533960795 -1.6629392246050905
      vertex -8.79990500194755 17.857206526348005 -1.76384252869671
    endloop
  endfacet
  facet normal 0 0.4275550934302801 0.9039892931234442
    outer loop
      vertex -8.79990500194755 17.857206526348005 -1.76384252869671
      vertex 8.79990500194755 17.857206526348005 -1.76384252869671
      vertex -8.779908150480077 18.03463313526982 -1.8477590650225735
    endloop
  endfacet
  facet normal 0 0.33688985339221933 0.9415440651830209
    outer loop
      vertex -8.779908150480077 18.03463313526982 -1.8477590650225735
      vertex 8.779908150480077 18.03463313526982 -1.8477590650225735
      vertex -8.759080562183657 18.219430645491077 -1.9138806714644176
    endloop
  endfacet
  facet normal -9.734492140177877e-20 0.8032075314806463 0.5956993044924315
    outer loop
      vertex -8.867891700524376 17.253979093274527 -1.268786568327291
      vertex -8.881068969991865 17.13706077539491 -1.1111404660392044
      vertex 8.881068969991865 17.13706077539491 -1.1111404660392044
    endloop
  endfacet
  facet normal -5.669221643567059e-17 0.24298017990326695 -0.9700312531945432
    outer loop
      vertex -8.75 18.299999997019768 1.9340622434134245
      vertex -1.6430140423688755 18.3 1.9340622441599336
      vertex -8.759080562183657 18.219430645491077 1.9138806714644176
    endloop
  endfacet
  facet normal -3.0306829218125663e-17 0.24298012069665775 -0.9700312680250247
    outer loop
      vertex -8.75 18.3 1.9340622441599338
      vertex -1.6430140423688755 18.3 1.9340622441599336
      vertex -8.75 18.299999997019768 1.9340622434134245
    endloop
  endfacet
  facet normal 1.9284010785938316e-20 0.9987954562051721 -0.04906767432742435
    outer loop
      vertex -8.9190573771538 16.8 0
      vertex -8.917971967179541 16.809630546655608 0.1960342806591212
      vertex 8.917971967179541 16.809630546655608 0.1960342806591212
    endloop
  endfacet
  facet normal 1.2482091847313023e-21 0.9891765099647819 -0.14673047445535575
    outer loop
      vertex -8.917971967179541 16.809630546655608 0.1960342806591212
      vertex -8.914726190348162 16.83842943919354 0.3901806440322565
      vertex 8.914726190348162 16.83842943919354 0.3901806440322565
    endloop
  endfacet
  facet normal 2.829175964939752e-21 0.9700312531945455 -0.2429801799032577
    outer loop
      vertex -8.914726190348162 16.83842943919354 0.3901806440322565
      vertex -8.909351305264869 16.88611932853558 0.5805693545089247
      vertex 8.909351305264869 16.88611932853558 0.5805693545089247
    endloop
  endfacet
  facet normal -7.724112410988929e-21 0.9415440651830166 -0.33688985339223176
    outer loop
      vertex -8.909351305264869 16.88611932853558 0.5805693545089247
      vertex -8.901899075011226 16.95224093497743 0.7653668647301796
      vertex 8.901899075011226 16.95224093497743 0.7653668647301796
    endloop
  endfacet
  facet normal 9.402235976375493e-20 0.9039892931234457 -0.4275550934302772
    outer loop
      vertex -8.901899075011226 16.95224093497743 0.7653668647301796
      vertex -8.89244126863838 17.03615747130329 0.9427934736519953
      vertex 8.89244126863838 17.03615747130329 0.9427934736519953
    endloop
  endfacet
  facet normal 3.878738693908872e-19 0.8577286100002709 -0.5141027441932237
    outer loop
      vertex -8.89244126863838 17.03615747130329 0.9427934736519953
      vertex -8.881068969991865 17.13706077539491 1.1111404660392044
      vertex 8.881068969991865 17.13706077539491 1.1111404660392044
    endloop
  endfacet
  facet normal 9.748957137089453e-20 0.8032075314806463 -0.5956993044924315
    outer loop
      vertex -8.881068969991865 17.13706077539491 1.1111404660392044
      vertex -8.867891700524376 17.253979093274527 1.268786568327291
      vertex 8.867891700524376 17.253979093274527 1.268786568327291
    endloop
  endfacet
  facet normal 2.3703391585648746e-19 0.7409511253549617 -0.6715589548470154
    outer loop
      vertex -8.867891700524376 17.253979093274527 1.268786568327291
      vertex -8.853036364544314 17.385786437626905 1.4142135623730951
      vertex 8.853036364544314 17.385786437626905 1.4142135623730951
    endloop
  endfacet
  facet normal 0 0.6715589548470129 -0.740951125354964
    outer loop
      vertex -8.836646027057919 17.53121343167271 1.546020906725474
      vertex 8.836646027057919 17.53121343167271 1.546020906725474
      vertex -8.853036364544314 17.385786437626905 1.4142135623730951
    endloop
  endfacet
  facet normal 0 0.5956993044924405 -0.8032075314806395
    outer loop
      vertex -8.818878535975056 17.688859533960795 1.6629392246050905
      vertex 8.818878535975056 17.688859533960795 1.6629392246050905
      vertex -8.836646027057919 17.53121343167271 1.546020906725474
    endloop
  endfacet
  facet normal 0 0.5141027441932193 -0.8577286100002736
    outer loop
      vertex -8.79990500194755 17.857206526348005 1.76384252869671
      vertex 8.79990500194755 17.857206526348005 1.76384252869671
      vertex -8.818878535975056 17.688859533960795 1.6629392246050905
    endloop
  endfacet
  facet normal 0 0.4275550934302801 -0.9039892931234442
    outer loop
      vertex -8.779908150480077 18.03463313526982 1.8477590650225735
      vertex 8.779908150480077 18.03463313526982 1.8477590650225735
      vertex -8.79990500194755 17.857206526348005 1.76384252869671
    endloop
  endfacet
  facet normal 0 0.3368898533922193 -0.941544065183021
    outer loop
      vertex -8.759080562183657 18.219430645491077 1.9138806714644176
      vertex 8.759080562183657 18.219430645491077 1.9138806714644176
      vertex -8.779908150480077 18.03463313526982 1.8477590650225735
    endloop
  endfacet
  facet normal 0 0.24298017990326226 -0.9700312531945445
    outer loop
      vertex -8.759080562183657 18.219430645491077 1.9138806714644176
      vertex -1.6430140423688755 18.3 1.9340622441599336
      vertex 8.759080562183657 18.219430645491077 1.9138806714644176
    endloop
  endfacet
  facet normal 0 0.24298017990326226 0.9700312531945445
    outer loop
      vertex -8.759080562183657 18.219430645491077 -1.9138806714644176
      vertex 8.759080562183657 18.219430645491077 -1.9138806714644176
      vertex 1.6430140423688755 18.3 -1.9340622441599336
    endloop
  endfacet
  facet normal 0 0.8577286100002709 0.5141027441932237
    outer loop
      vertex -8.881068969991865 17.13706077539491 -1.1111404660392044
      vertex 8.89244126863838 17.03615747130329 -0.9427934736519953
      vertex 8.881068969991865 17.13706077539491 -1.1111404660392044
    endloop
  endfacet
  facet normal 0 0.9039892931234457 0.4275550934302772
    outer loop
      vertex -8.89244126863838 17.03615747130329 -0.9427934736519953
      vertex 8.901899075011226 16.95224093497743 -0.7653668647301796
      vertex 8.89244126863838 17.03615747130329 -0.9427934736519953
    endloop
  endfacet
  facet normal 0 0.9415440651830166 0.33688985339223176
    outer loop
      vertex -8.901899075011226 16.95224093497743 -0.7653668647301796
      vertex 8.909351305264869 16.88611932853558 -0.5805693545089247
      vertex 8.901899075011226 16.95224093497743 -0.7653668647301796
    endloop
  endfacet
  facet normal 0 0.9700312531945455 0.24298017990325774
    outer loop
      vertex -8.909351305264869 16.88611932853558 -0.5805693545089247
      vertex 8.914726190348162 16.83842943919354 -0.3901806440322565
      vertex 8.909351305264869 16.88611932853558 -0.5805693545089247
    endloop
  endfacet
  facet normal 0 0.9891765099647818 0.14673047445535572
    outer loop
      vertex -8.914726190348162 16.83842943919354 -0.3901806440322565
      vertex 8.917971967179541 16.809630546655608 -0.1960342806591212
      vertex 8.914726190348162 16.83842943919354 -0.3901806440322565
    endloop
  endfacet
  facet normal 0 0.9987954562051721 0.04906767432742435
    outer loop
      vertex -8.917971967179541 16.809630546655608 -0.1960342806591212
      vertex 8.9190573771538 16.8 0
      vertex 8.917971967179541 16.809630546655608 -0.1960342806591212
    endloop
  endfacet
  facet normal -2.3703391585648746e-19 0.7409511253549617 0.6715589548470154
    outer loop
      vertex 8.867891700524376 17.253979093274527 -1.268786568327291
      vertex 8.853036364544314 17.385786437626905 -1.4142135623730951
      vertex -8.853036364544314 17.385786437626905 -1.4142135623730951
    endloop
  endfacet
  facet normal 0 0.5956993044924405 0.8032075314806395
    outer loop
      vertex -8.818878535975056 17.688859533960795 -1.6629392246050905
      vertex 8.836646027057919 17.53121343167271 -1.546020906725474
      vertex 8.818878535975056 17.688859533960795 -1.6629392246050905
    endloop
  endfacet
  facet normal 0 0.6715589548470129 0.740951125354964
    outer loop
      vertex -8.836646027057919 17.53121343167271 -1.546020906725474
      vertex 8.853036364544314 17.385786437626905 -1.4142135623730951
      vertex 8.836646027057919 17.53121343167271 -1.546020906725474
    endloop
  endfacet
  facet normal 0 0.5141027441932193 0.8577286100002736
    outer loop
      vertex -8.79990500194755 17.857206526348005 -1.76384252869671
      vertex 8.818878535975056 17.688859533960795 -1.6629392246050905
      vertex 8.79990500194755 17.857206526348005 -1.76384252869671
    endloop
  endfacet
  facet normal 0 0.4275550934302801 0.9039892931234442
    outer loop
      vertex -8.779908150480077 18.03463313526982 -1.8477590650225735
      vertex 8.79990500194755 17.857206526348005 -1.76384252869671
      vertex 8.779908150480077 18.03463313526982 -1.8477590650225735
    endloop
  endfacet
  facet normal 0 0.3368898533922193 0.941544065183021
    outer loop
      vertex -8.759080562183657 18.219430645491077 -1.9138806714644176
      vertex 8.779908150480077 18.03463313526982 -1.8477590650225735
      vertex 8.759080562183657 18.219430645491077 -1.9138806714644176
    endloop
  endfacet
  facet normal 0 0.8032075314806463 0.5956993044924315
    outer loop
      vertex -8.867891700524376 17.253979093274527 -1.268786568327291
      vertex 8.881068969991865 17.13706077539491 -1.1111404660392044
      vertex 8.867891700524376 17.253979093274527 -1.268786568327291
    endloop
  endfacet
  facet normal 3.0306829218125663e-17 0.24298012069665775 0.9700312680250247
    outer loop
      vertex 1.6430140423688755 18.3 -1.9340622441599336
      vertex 8.75 18.299999997019768 -1.9340622434134245
      vertex 8.75 18.3 -1.9340622441599338
    endloop
  endfacet
  facet normal 5.66922164350799e-17 0.24298017990326695 0.9700312531945432
    outer loop
      vertex 1.6430140423688755 18.3 -1.9340622441599336
      vertex 8.759080562183657 18.219430645491077 -1.9138806714644176
      vertex 8.75 18.299999997019768 -1.9340622434134245
    endloop
  endfacet
  facet normal 1.928166400681518e-20 0.9987954562051721 -0.04906767432742435
    outer loop
      vertex 8.917971967179541 16.809630546655608 0.1960342806591212
      vertex 8.9190573771538 16.8 0
      vertex -8.9190573771538 16.8 0
    endloop
  endfacet
  facet normal 1.247754887670555e-21 0.9891765099647818 -0.14673047445535575
    outer loop
      vertex 8.914726190348162 16.83842943919354 0.3901806440322565
      vertex 8.917971967179541 16.809630546655608 0.1960342806591212
      vertex -8.917971967179541 16.809630546655608 0.1960342806591212
    endloop
  endfacet
  facet normal 2.827470192337512e-21 0.9700312531945455 -0.24298017990325774
    outer loop
      vertex 8.909351305264869 16.88611932853558 0.5805693545089247
      vertex 8.914726190348162 16.83842943919354 0.3901806440322565
      vertex -8.914726190348162 16.83842943919354 0.3901806440322565
    endloop
  endfacet
  facet normal -7.717651574254645e-21 0.9415440651830166 -0.33688985339223176
    outer loop
      vertex 8.901899075011226 16.95224093497743 0.7653668647301796
      vertex 8.909351305264869 16.88611932853558 0.5805693545089247
      vertex -8.909351305264869 16.88611932853558 0.5805693545089247
    endloop
  endfacet
  facet normal 9.392246587977913e-20 0.9039892931234457 -0.4275550934302772
    outer loop
      vertex 8.89244126863838 17.03615747130329 0.9427934736519953
      vertex 8.901899075011226 16.95224093497743 0.7653668647301796
      vertex -8.901899075011226 16.95224093497743 0.7653668647301796
    endloop
  endfacet
  facet normal 3.873778281636655e-19 0.8577286100002709 -0.5141027441932238
    outer loop
      vertex 8.881068969991865 17.13706077539491 1.1111404660392044
      vertex 8.89244126863838 17.03615747130329 0.9427934736519953
      vertex -8.89244126863838 17.03615747130329 0.9427934736519953
    endloop
  endfacet
  facet normal 9.734492140177877e-20 0.8032075314806463 -0.5956993044924315
    outer loop
      vertex 8.867891700524376 17.253979093274527 1.268786568327291
      vertex 8.881068969991865 17.13706077539491 1.1111404660392044
      vertex -8.881068969991865 17.13706077539491 1.1111404660392044
    endloop
  endfacet
  facet normal 2.3663684081569626e-19 0.7409511253549618 -0.6715589548470156
    outer loop
      vertex 8.853036364544314 17.385786437626905 1.4142135623730951
      vertex 8.867891700524376 17.253979093274527 1.268786568327291
      vertex -8.867891700524376 17.253979093274527 1.268786568327291
    endloop
  endfacet
  facet normal 0 0.671558954847013 -0.7409511253549641
    outer loop
      vertex 8.853036364544314 17.385786437626905 1.4142135623730951
      vertex -8.853036364544314 17.385786437626905 1.4142135623730951
      vertex 8.836646027057919 17.53121343167271 1.546020906725474
    endloop
  endfacet
  facet normal 0 0.5956993044924406 -0.8032075314806396
    outer loop
      vertex 8.836646027057919 17.53121343167271 1.546020906725474
      vertex -8.836646027057919 17.53121343167271 1.546020906725474
      vertex 8.818878535975056 17.688859533960795 1.6629392246050905
    endloop
  endfacet
  facet normal 0 0.5141027441932192 -0.8577286100002735
    outer loop
      vertex 8.818878535975056 17.688859533960795 1.6629392246050905
      vertex -8.818878535975056 17.688859533960795 1.6629392246050905
      vertex 8.79990500194755 17.857206526348005 1.76384252869671
    endloop
  endfacet
  facet normal 0 0.4275550934302801 -0.9039892931234442
    outer loop
      vertex 8.79990500194755 17.857206526348005 1.76384252869671
      vertex -8.79990500194755 17.857206526348005 1.76384252869671
      vertex 8.779908150480077 18.03463313526982 1.8477590650225735
    endloop
  endfacet
  facet normal 0 0.33688985339221933 -0.9415440651830209
    outer loop
      vertex 8.779908150480077 18.03463313526982 1.8477590650225735
      vertex -8.779908150480077 18.03463313526982 1.8477590650225735
      vertex 8.759080562183657 18.219430645491077 1.9138806714644176
    endloop
  endfacet
  facet normal -2.728222588543026e-18 0.24298017990326184 -0.9700312531945444
    outer loop
      vertex 8.759080562183657 18.219430645491077 1.9138806714644176
      vertex -1.6430140423688755 18.3 1.9340622441599336
      vertex 8.75 18.299999997019768 1.934062243413424
    endloop
  endfacet
  facet normal 0 0.2429801887026534 -0.9700312509904117
    outer loop
      vertex 8.75 18.299999997019768 1.934062243413424
      vertex -1.6430140423688755 18.3 1.9340622441599336
      vertex 8.75 18.3 1.9340622441599336
    endloop
  endfacet
endsolid OpenSCAD_Model
